<svg width="24" height="24" viewBox="0 0 24 24" fill="none" xmlns="http://www.w3.org/2000/svg">
<path d="M19 11.25C19.4142 11.25 19.75 11.5858 19.75 12C19.75 12.4142 19.4142 12.75 19 12.75H5C4.58579 12.75 4.25 12.4142 4.25 12C4.25 11.5858 4.58579 11.25 5 11.25H19Z" fill="#18181B"/>
<path d="M11.25 2C11.25 1.58579 11.5858 1.25 12 1.25C12.4142 1.25 12.75 1.58579 12.75 2V7.18945L15.4697 4.46973C15.7626 4.17683 16.2374 4.17683 16.5303 4.46973C16.8232 4.76262 16.8232 5.23738 16.5303 5.53027L12.5303 9.53027C12.3896 9.67093 12.1989 9.75 12 9.75C11.8011 9.75 11.6104 9.67093 11.4697 9.53027L7.46973 5.53027C7.17683 5.23738 7.17683 4.76262 7.46973 4.46973C7.76262 4.17683 8.23738 4.17683 8.53027 4.46973L11.25 7.18945V2Z" fill="#18181B"/>
<path d="M11.25 22V16.8106L8.53027 19.5303C8.23738 19.8232 7.76262 19.8232 7.46972 19.5303C7.17683 19.2374 7.17683 18.7626 7.46972 18.4697L11.4697 14.4697L11.5264 14.418C11.8209 14.1777 12.2557 14.1951 12.5303 14.4697L16.5303 18.4697C16.8232 18.7626 16.8232 19.2374 16.5303 19.5303C16.2374 19.8232 15.7626 19.8232 15.4697 19.5303L12.75 16.8106V22C12.75 22.4142 12.4142 22.75 12 22.75C11.5858 22.75 11.25 22.4142 11.25 22Z" fill="#18181B"/>
</svg>
