<svg width="24" height="24" viewBox="0 0 24 24" fill="none" xmlns="http://www.w3.org/2000/svg">
<path d="M11.2495 18.9998V4.99976C11.2495 4.58554 11.5853 4.24976 11.9995 4.24976C12.4137 4.24976 12.7495 4.58554 12.7495 4.99976V18.9998C12.7495 19.414 12.4137 19.7498 11.9995 19.7498C11.5853 19.7498 11.2495 19.414 11.2495 18.9998Z" fill="#18181B"/>
<path d="M18.4693 7.46948C18.7621 7.17659 19.2369 7.17659 19.5298 7.46948C19.8227 7.76238 19.8227 8.23714 19.5298 8.53003L16.8101 11.2498H21.9995C22.4137 11.2498 22.7495 11.5855 22.7495 11.9998C22.7495 12.414 22.4137 12.7498 21.9995 12.7498H16.8101L19.5298 15.4695C19.8227 15.7624 19.8227 16.2371 19.5298 16.53C19.2369 16.8229 18.7621 16.8229 18.4693 16.53L14.4693 12.53C14.3286 12.3894 14.2495 12.1987 14.2495 11.9998C14.2495 11.8008 14.3286 11.6101 14.4693 11.4695L18.4693 7.46948Z" fill="#18181B"/>
<path d="M4.46973 7.46972C4.76262 7.17682 5.23738 7.17682 5.53027 7.46972L9.53027 11.4697C9.82317 11.7626 9.82317 12.2374 9.53027 12.5303L5.53027 16.5303C5.23738 16.8232 4.76262 16.8232 4.46973 16.5303C4.17683 16.2374 4.17683 15.7626 4.46973 15.4697L7.18945 12.75H2C1.58579 12.75 1.25 12.4142 1.25 12C1.25 11.5858 1.58579 11.25 2 11.25H7.18945L4.46973 8.53026C4.17683 8.23737 4.17683 7.76261 4.46973 7.46972Z" fill="#18181B"/>
</svg>
