<svg width="24" height="24" viewBox="0 0 24 24" fill="none" xmlns="http://www.w3.org/2000/svg">
<path d="M10.9999 5C10.9999 4.44772 11.4476 4 11.9999 4C12.5522 4 12.9999 4.44772 12.9999 5V16.5859L15.2929 14.293C15.6834 13.9024 16.3164 13.9024 16.707 14.293C17.0975 14.6835 17.0975 15.3165 16.707 15.707L12.707 19.707C12.5194 19.8946 12.2651 20 11.9999 20C11.7347 20 11.4804 19.8946 11.2929 19.707L7.29289 15.707C6.90237 15.3165 6.90237 14.6835 7.29289 14.293C7.68342 13.9024 8.31643 13.9024 8.70696 14.293L10.9999 16.5859V5Z" fill="#18181B"/>
</svg>
