<svg width="24" height="24" viewBox="0 0 24 24" fill="none" xmlns="http://www.w3.org/2000/svg">
<path d="M10.9995 18.9998V4.99976C10.9995 4.44747 11.4472 3.99976 11.9995 3.99976C12.5518 3.99976 12.9995 4.44747 12.9995 4.99976V18.9998C12.9995 19.552 12.5518 19.9998 11.9995 19.9998C11.4472 19.9998 10.9995 19.552 10.9995 18.9998Z" fill="#18181B"/>
<path d="M18.2925 7.29272C18.683 6.9022 19.316 6.9022 19.7066 7.29272C20.0971 7.68325 20.0971 8.31626 19.7066 8.70679L17.4136 10.9998H21.9995C22.5518 10.9998 22.9995 11.4475 22.9995 11.9998C22.9995 12.552 22.5518 12.9998 21.9995 12.9998H17.4136L19.7066 15.2927C20.0971 15.6832 20.0971 16.3163 19.7066 16.7068C19.316 17.0973 18.683 17.0973 18.2925 16.7068L14.2925 12.7068C14.105 12.5193 13.9995 12.265 13.9995 11.9998C13.9995 11.7345 14.105 11.4803 14.2925 11.2927L18.2925 7.29272Z" fill="#18181B"/>
<path d="M4.29297 7.29296C4.68349 6.90244 5.31651 6.90244 5.70703 7.29296L9.70703 11.293C10.0976 11.6835 10.0976 12.3165 9.70703 12.707L5.70703 16.707C5.31651 17.0975 4.68349 17.0975 4.29297 16.707C3.90244 16.3165 3.90244 15.6835 4.29297 15.293L6.58594 13H2C1.44772 13 1 12.5523 1 12C1 11.4477 1.44772 11 2 11H6.58594L4.29297 8.70702C3.90244 8.3165 3.90244 7.68348 4.29297 7.29296Z" fill="#18181B"/>
</svg>
