<svg width="24" height="24" viewBox="0 0 24 24" fill="none" xmlns="http://www.w3.org/2000/svg">
<path d="M19 11C19.5523 11 20 11.4477 20 12C20 12.5523 19.5523 13 19 13H5C4.44772 13 4 12.5523 4 12C4 11.4477 4.44772 11 5 11H19Z" fill="#18181B"/>
<path d="M11 2C11 1.44772 11.4477 1 12 1C12.5523 1 13 1.44772 13 2V6.58594L15.293 4.29297C15.6835 3.90244 16.3165 3.90244 16.707 4.29297C17.0976 4.68349 17.0976 5.31651 16.707 5.70703L12.707 9.70703C12.5195 9.89457 12.2652 10 12 10C11.7348 10 11.4805 9.89457 11.293 9.70703L7.29297 5.70703C6.90244 5.31651 6.90244 4.68349 7.29297 4.29297C7.68349 3.90244 8.31651 3.90244 8.70703 4.29297L11 6.58594V2Z" fill="#18181B"/>
<path d="M11 22V17.4141L8.70703 19.707C8.3165 20.0976 7.68349 20.0976 7.29297 19.707C6.90244 19.3165 6.90244 18.6835 7.29297 18.293L11.293 14.293L11.3691 14.2246C11.7619 13.9043 12.3409 13.9269 12.707 14.293L16.707 18.293C17.0976 18.6835 17.0976 19.3165 16.707 19.707C16.3165 20.0976 15.6835 20.0976 15.293 19.707L13 17.4141V22C13 22.5523 12.5523 23 12 23C11.4477 23 11 22.5523 11 22Z" fill="#18181B"/>
</svg>
