<svg width="24" height="24" viewBox="0 0 24 24" fill="none" xmlns="http://www.w3.org/2000/svg">
<path d="M19 19.25C19.4142 19.25 19.75 19.5858 19.75 20C19.75 20.4142 19.4142 20.75 19 20.75H5C4.58579 20.75 4.25 20.4142 4.25 20C4.25 19.5858 4.58579 19.25 5 19.25H19Z" fill="#18181B"/>
<path d="M12 3.25C12.4142 3.25003 12.75 3.58581 12.75 4V14.1895L15.4697 11.4697C15.7626 11.1769 16.2374 11.1768 16.5303 11.4697C16.8231 11.7626 16.8231 12.2374 16.5303 12.5303L12.5303 16.5303C12.3896 16.6709 12.1989 16.75 12 16.75C11.8011 16.75 11.6104 16.6709 11.4697 16.5303L7.46973 12.5303C7.17683 12.2374 7.17683 11.7626 7.46973 11.4697C7.76262 11.1769 8.23739 11.1768 8.53027 11.4697L11.25 14.1895V4C11.25 3.58579 11.5858 3.25 12 3.25Z" fill="#18181B"/>
</svg>
