<svg width="24" height="24" viewBox="0 0 24 24" fill="none" xmlns="http://www.w3.org/2000/svg">
<path d="M17 3C19.2091 3 21 4.79086 21 7V17C21 19.2091 19.2091 21 17 21H16C15.4477 21 15 20.5523 15 20C15 19.4477 15.4477 19 16 19H17C18.1046 19 19 18.1046 19 17V7C19 5.89543 18.1046 5 17 5H16C15.4477 5 15 4.55228 15 4C15 3.44772 15.4477 3 16 3H17Z" fill="#18181B"/>
<path d="M11.293 7.29297C11.6835 6.90248 12.3165 6.90248 12.707 7.29297L16.707 11.293C17.0975 11.6835 17.0975 12.3165 16.707 12.707L12.707 16.707C12.3165 17.0976 11.6835 17.0976 11.293 16.707C10.9025 16.3165 10.9025 15.6835 11.293 15.293L13.5859 13H4C3.44772 13 3 12.5523 3 12C3.00003 11.4477 3.44773 11 4 11H13.5859L11.293 8.70703C10.9025 8.3165 10.9025 7.68349 11.293 7.29297Z" fill="#18181B"/>
</svg>
