<svg width="24" height="24" viewBox="0 0 24 24" fill="none" xmlns="http://www.w3.org/2000/svg">
<path d="M19 19.2499C19.4142 19.2499 19.75 19.5857 19.75 19.9999C19.75 20.4141 19.4142 20.7499 19 20.7499H5C4.58579 20.7499 4.25 20.4141 4.25 19.9999C4.25003 19.5857 4.58581 19.2499 5 19.2499H19Z" fill="#18181B"/>
<path d="M11.5264 3.41788C11.8209 3.17769 12.2557 3.19513 12.5303 3.46964L16.5303 7.46964C16.8231 7.76249 16.823 8.23728 16.5303 8.53019C16.2374 8.82308 15.7626 8.82308 15.4697 8.53019L12.75 5.81046V15.9999C12.75 16.4141 12.4142 16.7499 12 16.7499C11.5858 16.7499 11.25 16.4141 11.25 15.9999V5.81046L8.53027 8.53019C8.23738 8.82308 7.76262 8.82308 7.46973 8.53019C7.17689 8.23729 7.17685 7.76251 7.46973 7.46964L11.4697 3.46964L11.5264 3.41788Z" fill="#18181B"/>
</svg>
