<svg width="24" height="24" viewBox="0 0 24 24" fill="none" xmlns="http://www.w3.org/2000/svg">
<path d="M3 17V16C3 15.4477 3.44772 15 4 15C4.55228 15 5 15.4477 5 16V17C5 18.1046 5.89543 19 7 19H17L17.2041 18.9893C18.2128 18.887 19 18.0357 19 17V16C19 15.4477 19.4477 15 20 15C20.5523 15 21 15.4477 21 16V17C21 19.2091 19.2091 21 17 21H7C4.79086 21 3 19.2091 3 17ZM11 16V6.41407L8.70703 8.70704C8.31651 9.09757 7.68349 9.09756 7.29297 8.70704C6.90244 8.31652 6.90244 7.6835 7.29297 7.29298L11.293 3.29298L11.3691 3.22462C11.7619 2.90427 12.3409 2.92686 12.707 3.29298L16.707 7.29298C17.0976 7.6835 17.0976 8.31652 16.707 8.70704C16.3165 9.09756 15.6835 9.09756 15.293 8.70704L13 6.41407V16C13 16.5523 12.5523 17 12 17C11.4477 17 11 16.5523 11 16Z" fill="#18181B"/>
</svg>
