<svg width="24" height="24" viewBox="0 0 24 24" fill="none" xmlns="http://www.w3.org/2000/svg">
<path d="M3.99902 4.25C4.41324 4.25 4.74902 4.58579 4.74902 5V19C4.74902 19.4142 4.41324 19.75 3.99902 19.75C3.58481 19.75 3.24902 19.4142 3.24902 19V5C3.24902 4.58579 3.58481 4.25 3.99902 4.25Z" fill="#18181B"/>
<path d="M11.4688 7.46973C11.7616 7.17683 12.2364 7.17683 12.5293 7.46973C12.8222 7.76262 12.8222 8.23739 12.5293 8.53027L9.80957 11.25H19.999C20.4132 11.25 20.749 11.5858 20.749 12C20.749 12.4142 20.4132 12.75 19.999 12.75H9.80957L12.5293 15.4697C12.8222 15.7626 12.8222 16.2374 12.5293 16.5303C12.2364 16.8231 11.7616 16.8231 11.4688 16.5303L7.46875 12.5303C7.32811 12.3896 7.24904 12.1989 7.24902 12C7.24902 11.8011 7.32812 11.6104 7.46875 11.4697L11.4688 7.46973Z" fill="#18181B"/>
</svg>
