<svg width="24" height="24" viewBox="0 0 24 24" fill="none" xmlns="http://www.w3.org/2000/svg">
<path d="M20 4.25C20.4142 4.25 20.75 4.58579 20.75 5V19C20.75 19.4142 20.4142 19.75 20 19.75C19.5858 19.75 19.25 19.4142 19.25 19V5C19.25 4.58579 19.5858 4.25 20 4.25Z" fill="#18181B"/>
<path d="M7.46973 7.46973C7.76262 7.17683 8.23738 7.17683 8.53027 7.46973C8.82314 7.76262 8.82316 8.23739 8.53027 8.53027L5.81055 11.25H16C16.4142 11.25 16.75 11.5858 16.75 12C16.75 12.4142 16.4142 12.75 16 12.75H5.81055L8.53027 15.4697C8.82314 15.7626 8.82316 16.2374 8.53027 16.5303C8.23739 16.8231 7.76261 16.8231 7.46973 16.5303L3.46973 12.5303C3.32909 12.3896 3.25002 12.1989 3.25 12C3.25 11.8011 3.32909 11.6104 3.46973 11.4697L7.46973 7.46973Z" fill="#18181B"/>
</svg>
