<svg width="24" height="24" viewBox="0 0 24 24" fill="none" xmlns="http://www.w3.org/2000/svg">
<path d="M3.99902 4C4.55131 4 4.99902 4.44772 4.99902 5V19C4.99902 19.5523 4.55131 20 3.99902 20C3.44674 20 2.99902 19.5523 2.99902 19V5C2.99902 4.44772 3.44674 4 3.99902 4Z" fill="#18181B"/>
<path d="M11.292 7.29297C11.6825 6.90244 12.3155 6.90244 12.7061 7.29297C13.0965 7.6835 13.0966 8.31652 12.7061 8.70703L10.4131 11H19.999C20.5513 11 20.999 11.4477 20.999 12C20.999 12.5522 20.5513 13 19.999 13H10.4131L12.7061 15.293C13.0965 15.6835 13.0966 16.3165 12.7061 16.707C12.3155 17.0975 11.6825 17.0975 11.292 16.707L7.29199 12.707C7.10447 12.5195 6.99904 12.2652 6.99902 12C6.99902 11.7348 7.10448 11.4805 7.29199 11.293L11.292 7.29297Z" fill="#18181B"/>
</svg>
