<svg width="24" height="24" viewBox="0 0 24 24" fill="none" xmlns="http://www.w3.org/2000/svg">
<path d="M11.5264 7.41797C11.8209 7.17766 12.2557 7.19512 12.5303 7.46973L16.5303 11.4697C16.8232 11.7626 16.8232 12.2374 16.5303 12.5303C16.2374 12.8232 15.7626 12.8232 15.4697 12.5303L12.75 9.81055V20C12.75 20.4142 12.4142 20.75 12 20.75C11.5858 20.75 11.25 20.4142 11.25 20V9.81055L8.53027 12.5303C8.23738 12.8232 7.76262 12.8232 7.46973 12.5303C7.17683 12.2374 7.17683 11.7626 7.46973 11.4697L11.4697 7.46973L11.5264 7.41797Z" fill="#18181B"/>
<path d="M17 3.25C19.0711 3.25 20.75 4.92893 20.75 7V8C20.75 8.41421 20.4142 8.75 20 8.75C19.5858 8.75 19.25 8.41421 19.25 8V7C19.25 5.75736 18.2426 4.75 17 4.75H7C5.75736 4.75 4.75 5.75736 4.75 7V8C4.75 8.41421 4.41421 8.75 4 8.75C3.58579 8.75 3.25 8.41421 3.25 8V7C3.25 4.92893 4.92893 3.25 7 3.25H17Z" fill="#18181B"/>
</svg>
