<svg width="24" height="24" viewBox="0 0 24 24" fill="none" xmlns="http://www.w3.org/2000/svg">
<path d="M12 7.25C12.4142 7.25003 12.75 7.58581 12.75 8V18.1895L15.4697 15.4697C15.7626 15.1769 16.2374 15.1768 16.5303 15.4697C16.8231 15.7626 16.8231 16.2374 16.5303 16.5303L12.5303 20.5303C12.3896 20.6709 12.1989 20.75 12 20.75C11.8011 20.75 11.6104 20.6709 11.4697 20.5303L7.46973 16.5303C7.17683 16.2374 7.17683 15.7626 7.46973 15.4697C7.76262 15.1769 8.23739 15.1768 8.53027 15.4697L11.25 18.1895V8C11.25 7.58579 11.5858 7.25 12 7.25Z" fill="#18181B"/>
<path d="M19 3.25C19.4142 3.25 19.75 3.58579 19.75 4C19.75 4.41421 19.4142 4.75 19 4.75H5C4.58579 4.75 4.25 4.41421 4.25 4C4.25 3.58579 4.58579 3.25 5 3.25H19Z" fill="#18181B"/>
</svg>
