<svg width="24" height="24" viewBox="0 0 24 24" fill="none" xmlns="http://www.w3.org/2000/svg">
<path d="M8 3.25C8.41421 3.25 8.75 3.58579 8.75 4C8.75 4.41421 8.41421 4.75 8 4.75H7C5.75736 4.75 4.75 5.75736 4.75 7V17C4.75 18.2426 5.75736 19.25 7 19.25H8C8.41421 19.25 8.75 19.5858 8.75 20C8.75 20.4142 8.41421 20.75 8 20.75H7C4.92893 20.75 3.25 19.0711 3.25 17V7C3.25 4.92893 4.92893 3.25 7 3.25H8Z" fill="#18181B"/>
<path d="M15.4697 7.46973C15.7626 7.17683 16.2374 7.17683 16.5303 7.46973L20.5303 11.4697C20.8231 11.7626 20.8232 12.2374 20.5303 12.5303L16.5303 16.5303C16.2374 16.8231 15.7626 16.8231 15.4697 16.5303C15.1768 16.2374 15.1769 15.7626 15.4697 15.4697L18.1895 12.75H8C7.58581 12.75 7.25003 12.4142 7.25 12C7.25 11.5858 7.58579 11.25 8 11.25H18.1895L15.4697 8.53027C15.1768 8.23739 15.1769 7.76262 15.4697 7.46973Z" fill="#18181B"/>
</svg>
