<svg width="24" height="24" viewBox="0 0 24 24" fill="none" xmlns="http://www.w3.org/2000/svg">
<path d="M11.25 8C11.25 7.58579 11.5858 7.25 12 7.25C12.4142 7.25 12.75 7.58579 12.75 8V18.1895L15.4697 15.4697C15.7626 15.1768 16.2374 15.1768 16.5303 15.4697C16.8232 15.7626 16.8232 16.2374 16.5303 16.5303L12.5303 20.5303C12.2374 20.8232 11.7626 20.8232 11.4697 20.5303L7.46973 16.5303C7.17683 16.2374 7.17683 15.7626 7.46973 15.4697C7.76262 15.1768 8.23738 15.1768 8.53027 15.4697L11.25 18.1895V8ZM19.25 8V7C19.25 5.75736 18.2426 4.75 17 4.75H7C5.75736 4.75 4.75 5.75736 4.75 7V8C4.75 8.41421 4.41421 8.75 4 8.75C3.58579 8.75 3.25 8.41421 3.25 8V7C3.25 4.92893 4.92893 3.25 7 3.25H17C19.0711 3.25 20.75 4.92893 20.75 7V8C20.75 8.41421 20.4142 8.75 20 8.75C19.5858 8.75 19.25 8.41421 19.25 8Z" fill="#18181B"/>
</svg>
