<svg width="24" height="24" viewBox="0 0 24 24" fill="none" xmlns="http://www.w3.org/2000/svg">
<path d="M12 7C12.5523 7 13 7.44772 13 8V17.5859L15.293 15.293C15.6835 14.9025 16.3165 14.9025 16.707 15.293C17.0976 15.6835 17.0976 16.3165 16.707 16.707L12.707 20.707C12.5195 20.8946 12.2652 21 12 21C11.7348 21 11.4805 20.8946 11.293 20.707L7.29297 16.707C6.90248 16.3165 6.90248 15.6835 7.29297 15.293C7.68349 14.9025 8.3165 14.9025 8.70703 15.293L11 17.5859V8C11 7.44773 11.4477 7.00003 12 7Z" fill="#18181B"/>
<path d="M19 3C19.5523 3 20 3.44772 20 4C20 4.55228 19.5523 5 19 5H5C4.44772 5 4 4.55228 4 4C4 3.44772 4.44772 3 5 3H19Z" fill="#18181B"/>
</svg>
