<svg width="24" height="24" viewBox="0 0 24 24" fill="none" xmlns="http://www.w3.org/2000/svg">
<path d="M17 3.25C19.0711 3.25 20.75 4.92893 20.75 7V17C20.75 19.0711 19.0711 20.75 17 20.75H16C15.5858 20.75 15.25 20.4142 15.25 20C15.25 19.5858 15.5858 19.25 16 19.25H17C18.2426 19.25 19.25 18.2426 19.25 17V7C19.25 5.75736 18.2426 4.75 17 4.75H16C15.5858 4.75 15.25 4.41421 15.25 4C15.25 3.58579 15.5858 3.25 16 3.25H17Z" fill="#18181B"/>
<path d="M11.4697 7.46973C11.7626 7.17683 12.2374 7.17683 12.5303 7.46973L16.5303 11.4697C16.8231 11.7626 16.8232 12.2374 16.5303 12.5303L12.5303 16.5303C12.2374 16.8231 11.7626 16.8231 11.4697 16.5303C11.1768 16.2374 11.1769 15.7626 11.4697 15.4697L14.1895 12.75H4C3.58581 12.75 3.25003 12.4142 3.25 12C3.25 11.5858 3.58579 11.25 4 11.25H14.1895L11.4697 8.53027C11.1768 8.23739 11.1769 7.76262 11.4697 7.46973Z" fill="#18181B"/>
</svg>
