<svg width="24" height="24" viewBox="0 0 24 24" fill="none" xmlns="http://www.w3.org/2000/svg">
<path d="M19 19C19.5523 19 20 19.4477 20 20C20 20.5523 19.5523 21 19 21H5C4.44772 21 4 20.5523 4 20C4 19.4477 4.44772 19 5 19H19Z" fill="#18181B"/>
<path d="M12 3C12.5522 3.00004 13 3.44774 13 4V13.5859L15.293 11.293C15.6835 10.9025 16.3165 10.9025 16.707 11.293C17.0975 11.6835 17.0975 12.3165 16.707 12.707L12.707 16.707C12.5195 16.8945 12.2652 17 12 17C11.7348 17 11.4805 16.8945 11.293 16.707L7.29297 12.707C6.90244 12.3165 6.90244 11.6835 7.29297 11.293C7.6835 10.9025 8.31652 10.9025 8.70703 11.293L11 13.5859V4C11 3.44772 11.4477 3 12 3Z" fill="#18181B"/>
</svg>
