<svg width="24" height="24" viewBox="0 0 24 24" fill="none" xmlns="http://www.w3.org/2000/svg">
<path d="M17.4697 5.46967C17.7626 5.17678 18.2374 5.17678 18.5303 5.46967C18.8232 5.76256 18.8232 6.23732 18.5303 6.53022L7.81055 17.2499H16C16.4142 17.2499 16.75 17.5857 16.75 17.9999C16.75 18.4142 16.4142 18.7499 16 18.7499H6C5.80109 18.7499 5.61038 18.6709 5.46973 18.5302C5.32908 18.3896 5.25 18.1989 5.25 17.9999V7.99994C5.25 7.58573 5.58579 7.24994 6 7.24994C6.41421 7.24994 6.75 7.58573 6.75 7.99994V16.1894L17.4697 5.46967Z" fill="#18181B"/>
</svg>
