<svg width="24" height="24" viewBox="0 0 24 24" fill="none" xmlns="http://www.w3.org/2000/svg">
<path d="M3.25 17V16C3.25 15.5858 3.58579 15.25 4 15.25C4.41421 15.25 4.75 15.5858 4.75 16V17C4.75 18.2426 5.75736 19.25 7 19.25H17C18.1648 19.25 19.1229 18.3648 19.2383 17.2305L19.25 17V16C19.25 15.5858 19.5858 15.25 20 15.25C20.4142 15.25 20.75 15.5858 20.75 16V17C20.75 19.0062 19.1746 20.6445 17.1934 20.7451L17 20.75H7C4.92893 20.75 3.25 19.0711 3.25 17ZM11.25 4C11.25 3.58579 11.5858 3.25 12 3.25C12.4142 3.25 12.75 3.58579 12.75 4V14.1895L15.4697 11.4697C15.7626 11.1768 16.2374 11.1768 16.5303 11.4697C16.8232 11.7626 16.8232 12.2374 16.5303 12.5303L12.5303 16.5303C12.2374 16.8232 11.7626 16.8232 11.4697 16.5303L7.46973 12.5303C7.17683 12.2374 7.17683 11.7626 7.46973 11.4697C7.76262 11.1768 8.23738 11.1768 8.53027 11.4697L11.25 14.1895V4Z" fill="#18181B"/>
</svg>
