<svg width="24" height="24" viewBox="0 0 24 24" fill="none" xmlns="http://www.w3.org/2000/svg">
<path d="M11 20V10.4141L8.70703 12.707C8.31651 13.0976 7.68349 13.0976 7.29297 12.707C6.90244 12.3165 6.90244 11.6835 7.29297 11.293L11.293 7.29297L11.3691 7.22461C11.7619 6.90426 12.3409 6.92685 12.707 7.29297L16.707 11.293C17.0976 11.6835 17.0976 12.3165 16.707 12.707C16.3165 13.0976 15.6835 13.0976 15.293 12.707L13 10.4141V20C13 20.5523 12.5523 21 12 21C11.4477 21 11 20.5523 11 20ZM19 8V7C19 5.89543 18.1046 5 17 5H7C5.89543 5 5 5.89543 5 7V8C5 8.55228 4.55228 9 4 9C3.44772 9 3 8.55228 3 8V7C3 4.79086 4.79086 3 7 3H17C19.2091 3 21 4.79086 21 7V8C21 8.55228 20.5523 9 20 9C19.4477 9 19 8.55228 19 8Z" fill="#18181B"/>
</svg>
