<svg width="24" height="24" viewBox="0 0 24 24" fill="none" xmlns="http://www.w3.org/2000/svg">
<path d="M11.3691 7.22461C11.7619 6.9043 12.3409 6.92687 12.707 7.29297L16.707 11.293C17.0975 11.6835 17.0975 12.3165 16.707 12.707C16.3165 13.0975 15.6835 13.0975 15.293 12.707L13 10.4141V20C13 20.5523 12.5522 21 12 21C11.4477 21 11 20.5523 11 20V10.4141L8.70703 12.707C8.31652 13.0975 7.6835 13.0975 7.29297 12.707C6.90244 12.3165 6.90244 11.6835 7.29297 11.293L11.293 7.29297L11.3691 7.22461Z" fill="#18181B"/>
<path d="M19 3C19.5523 3 20 3.44772 20 4C20 4.55228 19.5523 5 19 5H5C4.44772 5 4 4.55228 4 4C4 3.44772 4.44772 3 5 3H19Z" fill="#18181B"/>
</svg>
