<svg width="24" height="24" viewBox="0 0 24 24" fill="none" xmlns="http://www.w3.org/2000/svg">
<path d="M11.5264 7.41797C11.8209 7.17775 12.2557 7.19518 12.5303 7.46973L16.5303 11.4697C16.8231 11.7626 16.8231 12.2374 16.5303 12.5303C16.2374 12.8232 15.7626 12.8232 15.4697 12.5303L12.75 9.81055V20C12.75 20.4142 12.4142 20.75 12 20.75C11.5858 20.75 11.25 20.4142 11.25 20V9.81055L8.53027 12.5303C8.23738 12.8232 7.76262 12.8232 7.46973 12.5303C7.17686 12.2374 7.17684 11.7626 7.46973 11.4697L11.4697 7.46973L11.5264 7.41797Z" fill="#18181B"/>
<path d="M19 3.25C19.4142 3.25 19.75 3.58579 19.75 4C19.75 4.41421 19.4142 4.75 19 4.75H5C4.58579 4.75 4.25 4.41421 4.25 4C4.25 3.58579 4.58579 3.25 5 3.25H19Z" fill="#18181B"/>
</svg>
