<svg width="24" height="24" viewBox="0 0 24 24" fill="none" xmlns="http://www.w3.org/2000/svg">
<path d="M19.25 17V7C19.25 5.75736 18.2426 4.75 17 4.75H16C15.5858 4.75 15.25 4.41421 15.25 4C15.25 3.58579 15.5858 3.25 16 3.25H17C19.0711 3.25 20.75 4.92893 20.75 7V17C20.75 19.0062 19.1746 20.6445 17.1934 20.7451L17 20.75H16C15.5858 20.75 15.25 20.4142 15.25 20C15.25 19.5858 15.5858 19.25 16 19.25H17L17.2305 19.2383C18.3648 19.1229 19.25 18.1648 19.25 17ZM7.46973 7.46973C7.76262 7.17683 8.23738 7.17683 8.53027 7.46973C8.82317 7.76262 8.82317 8.23738 8.53027 8.53027L5.81055 11.25H16C16.4142 11.25 16.75 11.5858 16.75 12C16.75 12.4142 16.4142 12.75 16 12.75H5.81055L8.53027 15.4697C8.82317 15.7626 8.82317 16.2374 8.53027 16.5303C8.23738 16.8232 7.76262 16.8232 7.46973 16.5303L3.46973 12.5303C3.32907 12.3896 3.25 12.1989 3.25 12C3.25 11.8011 3.32907 11.6104 3.46973 11.4697L7.46973 7.46973Z" fill="#18181B"/>
</svg>
