<svg width="24" height="24" viewBox="0 0 24 24" fill="none" xmlns="http://www.w3.org/2000/svg">
<path d="M19 19.0003C19.5523 19.0003 20 19.448 20 20.0003C19.9999 20.5524 19.5522 21.0003 19 21.0003H5C4.4478 21.0003 4.00013 20.5524 4 20.0003C4 19.448 4.44772 19.0003 5 19.0003H19Z" fill="#18181B"/>
<path d="M11.3691 3.22486C11.7619 2.90451 12.3409 2.92711 12.707 3.29322L16.707 7.29322C17.0975 7.68375 17.0975 8.31679 16.707 8.70728C16.3165 9.09764 15.6835 9.09767 15.293 8.70728L13 6.41432V16.0003C12.9999 16.5524 12.5522 17.0003 12 17.0003C11.4478 17.0002 11.0001 16.5524 11 16.0003V6.41432L8.70703 8.70728C8.31653 9.09764 7.68345 9.09767 7.29297 8.70728C6.90249 8.31681 6.90259 7.68376 7.29297 7.29322L11.293 3.29322L11.3691 3.22486Z" fill="#18181B"/>
</svg>
