<svg width="24" height="24" viewBox="0 0 24 24" fill="none" xmlns="http://www.w3.org/2000/svg">
<path d="M3 17V16C3 15.4477 3.44772 15 4 15C4.55228 15 5 15.4477 5 16V17C5 18.1046 5.89543 19 7 19H17C18.0357 19 18.887 18.2128 18.9893 17.2041L19 17V16C19 15.4477 19.4477 15 20 15C20.5523 15 21 15.4477 21 16V17C21 19.14 19.3194 20.8879 17.2061 20.9951L17 21H7C4.79086 21 3 19.2091 3 17ZM11 4C11 3.44772 11.4477 3 12 3C12.5523 3 13 3.44772 13 4V13.5859L15.293 11.293C15.6835 10.9024 16.3165 10.9024 16.707 11.293C17.0976 11.6835 17.0976 12.3165 16.707 12.707L12.707 16.707C12.3165 17.0976 11.6835 17.0976 11.293 16.707L7.29297 12.707C6.90244 12.3165 6.90244 11.6835 7.29297 11.293C7.68349 10.9024 8.31651 10.9024 8.70703 11.293L11 13.5859V4Z" fill="#18181B"/>
</svg>
