<svg width="24" height="24" viewBox="0 0 24 24" fill="none" xmlns="http://www.w3.org/2000/svg">
<path d="M11.2499 4C11.2499 3.58579 11.5857 3.25 11.9999 3.25C12.4142 3.25 12.7499 3.58579 12.7499 4V18.1895L18.4697 12.4697C18.7626 12.1768 19.2373 12.1768 19.5302 12.4697C19.8231 12.7626 19.8231 13.2374 19.5302 13.5303L12.5302 20.5303C12.3896 20.6709 12.1989 20.75 11.9999 20.75C11.801 20.75 11.6103 20.6709 11.4697 20.5303L4.46967 13.5303C4.17678 13.2374 4.17678 12.7626 4.46967 12.4697C4.76256 12.1768 5.23732 12.1768 5.53022 12.4697L11.2499 18.1895V4Z" fill="#18181B"/>
</svg>
