<svg width="24" height="24" viewBox="0 0 24 24" fill="none" xmlns="http://www.w3.org/2000/svg">
<path d="M3 17V7C3 4.79086 4.79086 3 7 3H8C8.55228 3 9 3.44772 9 4C9 4.55228 8.55228 5 8 5H7C5.89543 5 5 5.89543 5 7V17C5 18.1046 5.89543 19 7 19H8C8.55228 19 9 19.4477 9 20C9 20.5523 8.55228 21 8 21H7C4.79086 21 3 19.2091 3 17ZM11.293 7.29297C11.6835 6.90244 12.3165 6.90244 12.707 7.29297C13.0976 7.68349 13.0976 8.31651 12.707 8.70703L10.4141 11H20C20.5523 11 21 11.4477 21 12C21 12.5523 20.5523 13 20 13H10.4141L12.707 15.293C13.0976 15.6835 13.0976 16.3165 12.707 16.707C12.3165 17.0976 11.6835 17.0976 11.293 16.707L7.29297 12.707C6.90244 12.3165 6.90244 11.6835 7.29297 11.293L11.293 7.29297Z" fill="#18181B"/>
</svg>
