<svg width="24" height="24" viewBox="0 0 24 24" fill="none" xmlns="http://www.w3.org/2000/svg">
<path d="M11 8C11 7.44772 11.4477 7 12 7C12.5523 7 13 7.44772 13 8V17.5859L15.293 15.293C15.6835 14.9024 16.3165 14.9024 16.707 15.293C17.0976 15.6835 17.0976 16.3165 16.707 16.707L12.707 20.707C12.3165 21.0976 11.6835 21.0976 11.293 20.707L7.29297 16.707C6.90244 16.3165 6.90244 15.6835 7.29297 15.293C7.68349 14.9024 8.31651 14.9024 8.70703 15.293L11 17.5859V8ZM19 8V7C19 5.89543 18.1046 5 17 5H7C5.89543 5 5 5.89543 5 7V8C5 8.55228 4.55228 9 4 9C3.44772 9 3 8.55228 3 8V7C3 4.79086 4.79086 3 7 3H17C19.2091 3 21 4.79086 21 7V8C21 8.55228 20.5523 9 20 9C19.4477 9 19 8.55228 19 8Z" fill="#18181B"/>
</svg>
