<svg width="24" height="24" viewBox="0 0 24 24" fill="none" xmlns="http://www.w3.org/2000/svg">
<path d="M3.25 17V7C3.25 4.92893 4.92893 3.25 7 3.25H8C8.41421 3.25 8.75 3.58579 8.75 4C8.75 4.41421 8.41421 4.75 8 4.75H7C5.75736 4.75 4.75 5.75736 4.75 7V17C4.75 18.2426 5.75736 19.25 7 19.25H8C8.41421 19.25 8.75 19.5858 8.75 20C8.75 20.4142 8.41421 20.75 8 20.75H7C4.92893 20.75 3.25 19.0711 3.25 17ZM11.4697 7.46973C11.7626 7.17683 12.2374 7.17683 12.5303 7.46973C12.8232 7.76262 12.8232 8.23738 12.5303 8.53027L9.81055 11.25H20C20.4142 11.25 20.75 11.5858 20.75 12C20.75 12.4142 20.4142 12.75 20 12.75H9.81055L12.5303 15.4697C12.8232 15.7626 12.8232 16.2374 12.5303 16.5303C12.2374 16.8232 11.7626 16.8232 11.4697 16.5303L7.46973 12.5303C7.17683 12.2374 7.17683 11.7626 7.46973 11.4697L11.4697 7.46973Z" fill="#18181B"/>
</svg>
