<svg width="24" height="24" viewBox="0 0 24 24" fill="none" xmlns="http://www.w3.org/2000/svg">
<path d="M20 4.25C20.4142 4.25 20.75 4.58579 20.75 5V19C20.75 19.4142 20.4142 19.75 20 19.75C19.5859 19.7499 19.25 19.4141 19.25 19V5C19.25 4.58587 19.5859 4.25013 20 4.25Z" fill="#18181B"/>
<path d="M11.4697 7.46973C11.7626 7.17686 12.2374 7.17693 12.5303 7.46973L16.5303 11.4697C16.8232 11.7626 16.8232 12.2374 16.5303 12.5303L12.5303 16.5303C12.2374 16.823 11.7626 16.8231 11.4697 16.5303C11.177 16.2374 11.177 15.7626 11.4697 15.4697L14.1895 12.75H4C3.58592 12.7499 3.25003 12.4141 3.25 12C3.25 11.5859 3.5859 11.2501 4 11.25H14.1895L11.4697 8.53027C11.177 8.23742 11.177 7.7626 11.4697 7.46973Z" fill="#18181B"/>
</svg>
