<svg width="24" height="24" viewBox="0 0 24 24" fill="none" xmlns="http://www.w3.org/2000/svg">
<path d="M20 4C20.5523 4 21 4.44772 21 5V19C21 19.5523 20.5523 20 20 20C19.4478 19.9999 19 19.5522 19 19V5C19 4.4478 19.4478 4.00013 20 4Z" fill="#18181B"/>
<path d="M11.293 7.29297C11.6835 6.90247 12.3165 6.90253 12.707 7.29297L16.707 11.293C17.0976 11.6835 17.0976 12.3165 16.707 12.707L12.707 16.707C12.3165 17.0974 11.6834 17.0975 11.293 16.707C10.9026 16.3166 10.9026 15.6835 11.293 15.293L13.5859 13H4C3.44785 12.9999 3.00004 12.5522 3 12C3 11.4478 3.44783 11.0001 4 11H13.5859L11.293 8.70703C10.9026 8.31655 10.9026 7.68348 11.293 7.29297Z" fill="#18181B"/>
</svg>
