<svg width="24" height="24" viewBox="0 0 24 24" fill="none" xmlns="http://www.w3.org/2000/svg">
<path d="M8 3C8.55228 3 9 3.44772 9 4C9 4.55228 8.55228 5 8 5H7C5.89543 5 5 5.89543 5 7V17C5 18.1046 5.89543 19 7 19H8C8.55228 19 9 19.4477 9 20C9 20.5523 8.55228 21 8 21H7C4.79086 21 3 19.2091 3 17V7C3 4.79086 4.79086 3 7 3H8Z" fill="#18181B"/>
<path d="M15.293 7.29297C15.6835 6.90248 16.3165 6.90248 16.707 7.29297L20.707 11.293C21.0975 11.6835 21.0975 12.3165 20.707 12.707L16.707 16.707C16.3165 17.0976 15.6835 17.0976 15.293 16.707C14.9025 16.3165 14.9025 15.6835 15.293 15.293L17.5859 13H8C7.44772 13 7 12.5523 7 12C7.00003 11.4477 7.44773 11 8 11H17.5859L15.293 8.70703C14.9025 8.3165 14.9025 7.68349 15.293 7.29297Z" fill="#18181B"/>
</svg>
