<svg width="24" height="24" viewBox="0 0 24 24" fill="none" xmlns="http://www.w3.org/2000/svg">
<path d="M19 17V7C19 5.89543 18.1046 5 17 5H16C15.4477 5 15 4.55228 15 4C15 3.44772 15.4477 3 16 3H17C19.2091 3 21 4.79086 21 7V17C21 19.14 19.3194 20.8879 17.2061 20.9951L17 21H16C15.4477 21 15 20.5523 15 20C15 19.4477 15.4477 19 16 19H17L17.2041 18.9893C18.2128 18.887 19 18.0357 19 17ZM7.29297 7.29297C7.68349 6.90244 8.31651 6.90244 8.70703 7.29297C9.09756 7.68349 9.09756 8.31651 8.70703 8.70703L6.41406 11H16C16.5523 11 17 11.4477 17 12C17 12.5523 16.5523 13 16 13H6.41406L8.70703 15.293C9.09756 15.6835 9.09756 16.3165 8.70703 16.707C8.31651 17.0976 7.68349 17.0976 7.29297 16.707L3.29297 12.707C3.10543 12.5195 3 12.2652 3 12C3 11.7348 3.10543 11.4805 3.29297 11.293L7.29297 7.29297Z" fill="#18181B"/>
</svg>
