<svg width="24" height="24" viewBox="0 0 24 24" fill="none" xmlns="http://www.w3.org/2000/svg">
<path d="M3.25 17V16C3.25 15.5858 3.58579 15.25 4 15.25C4.41421 15.25 4.75 15.5858 4.75 16V17C4.75 18.2426 5.75736 19.25 7 19.25H17L17.2305 19.2383C18.3648 19.1229 19.25 18.1648 19.25 17V16C19.25 15.5858 19.5858 15.25 20 15.25C20.4142 15.25 20.75 15.5858 20.75 16V17C20.75 19.0711 19.0711 20.75 17 20.75H7C4.92893 20.75 3.25 19.0711 3.25 17ZM11.25 16V5.81054L8.53027 8.53027C8.23738 8.82316 7.76262 8.82316 7.46973 8.53027C7.17683 8.23737 7.17683 7.76261 7.46973 7.46972L11.4697 3.46972L11.5264 3.41796C11.8209 3.17765 12.2557 3.19512 12.5303 3.46972L16.5303 7.46972C16.8232 7.76261 16.8232 8.23738 16.5303 8.53027C16.2374 8.82316 15.7626 8.82316 15.4697 8.53027L12.75 5.81054V16C12.75 16.4142 12.4142 16.75 12 16.75C11.5858 16.75 11.25 16.4142 11.25 16Z" fill="#18181B"/>
</svg>
