<svg width="24" height="24" viewBox="0 0 24 24" fill="none" xmlns="http://www.w3.org/2000/svg">
<path fill-rule="evenodd" clip-rule="evenodd" d="M4.94238 4.07202C4.94863 4.06811 4.95557 4.06504 4.96191 4.06128C5.01382 4.03061 5.06667 4.00087 5.12012 3.97241C5.47727 3.78226 5.86833 3.64376 6.28418 3.56812L11.2842 2.65894C13.739 2.21264 15.9998 4.09761 16 6.59351V17.0007C16 19.2103 14.2087 20.9998 12 20.9998H6.99805C4.7885 20.9995 3 19.2081 3 16.9998V7.50366C3.0001 6.0645 3.76595 4.77784 4.94238 4.07202ZM7 11.9998C6.44781 11.9998 6.00015 12.4476 6 12.9998C6 13.552 6.44772 13.9998 7 13.9998H12C12.5523 13.9998 13 13.552 13 12.9998C12.9998 12.4476 12.5522 11.9998 12 11.9998H7ZM7 7.99976C6.44781 7.99976 6.00015 8.4476 6 8.99976C6 9.55204 6.44772 9.99976 7 9.99976H12C12.5523 9.99976 13 9.55204 13 8.99976C12.9998 8.4476 12.5522 7.99976 12 7.99976H7ZM4.95215 4.06714C4.9475 4.06992 4.94312 4.07314 4.93848 4.07593L4.94238 4.07202C4.94549 4.07016 4.94903 4.069 4.95215 4.06714Z" fill="#18181B"/>
<path d="M18.4854 7.31714C20.0038 7.92455 20.9998 9.39562 21 11.031V16.9998C20.9999 19.2088 19.2091 20.9998 17 20.9998H16.4707C17.4208 19.9386 17.9999 18.5378 18 17.0007V7.1228L18.4854 7.31714Z" fill="#18181B"/>
</svg>
