<svg width="24" height="24" viewBox="0 0 24 24" fill="none" xmlns="http://www.w3.org/2000/svg">
<path d="M19.25 11.0313C19.25 10.1114 18.6899 9.28422 17.8359 8.94243L15.75 8.10747V19.25H17C18.2426 19.25 19.25 18.2427 19.25 17V11.0313ZM12 12.25C12.4142 12.25 12.75 12.5858 12.75 13C12.75 13.4143 12.4142 13.75 12 13.75H7C6.58579 13.75 6.25 13.4143 6.25 13C6.25 12.5858 6.58579 12.25 7 12.25H12ZM12 8.25005C12.4142 8.25005 12.75 8.58584 12.75 9.00005C12.75 9.41426 12.4142 9.75005 12 9.75005H7C6.58579 9.75005 6.25 9.41426 6.25 9.00005C6.25 8.58584 6.58579 8.25005 7 8.25005H12ZM20.75 17C20.75 19.0711 19.0711 20.75 17 20.75H7C4.92893 20.75 3.25 19.0711 3.25 17V7.50395C3.25 5.69167 4.54607 4.13875 6.3291 3.8145L11.3291 2.90532C13.5966 2.49305 15.6851 4.20275 15.7471 6.49028L18.3926 7.54888C19.8163 8.11836 20.75 9.49791 20.75 11.0313V17ZM4.75 17C4.75 18.2427 5.75736 19.25 7 19.25H14.25V6.59477C14.25 5.19105 12.9787 4.1299 11.5977 4.38091L6.59766 5.29009C5.5278 5.48461 4.75 6.41656 4.75 7.50395V17Z" fill="#18181B"/>
</svg>
