<svg width="24" height="24" viewBox="0 0 24 24" fill="none" xmlns="http://www.w3.org/2000/svg">
<path fill-rule="evenodd" clip-rule="evenodd" d="M21 16.1282C21 18.8188 18.7614 21 16 21H8C5.32472 21 3.14053 18.9528 3.00684 16.3785L3 16.1282V10.2821H21V16.1282ZM16 14.6667C15.1716 14.6667 14.5 15.321 14.5 16.1282C14.5 16.9354 15.1716 17.5897 16 17.5897C16.8284 17.5897 17.5 16.9354 17.5 16.1282C17.5 15.321 16.8284 14.6667 16 14.6667Z" fill="#18181B"/>
<path d="M16 2C16.5523 2 17 2.43624 17 2.97436V3.55859C19.2823 4.00996 21 5.97637 21 8.33333H3C3 5.97637 4.71772 4.00996 7 3.55859V2.97436C7 2.43624 7.44772 2 8 2C8.55228 2 9 2.43624 9 2.97436V3.46154H15V2.97436C15 2.43624 15.4477 2 16 2Z" fill="#18181B"/>
</svg>
