<svg width="24" height="24" viewBox="0 0 24 24" fill="none" xmlns="http://www.w3.org/2000/svg">
<path d="M16 14.75C16.6904 14.75 17.25 15.3096 17.25 16C17.25 16.6904 16.6904 17.25 16 17.25C15.3096 17.25 14.75 16.6904 14.75 16C14.75 15.3096 15.3096 14.75 16 14.75Z" fill="#18181B"/>
<path fill-rule="evenodd" clip-rule="evenodd" d="M16 1.75C16.4142 1.75 16.75 2.08579 16.75 2.5V3.30859C19.017 3.66816 20.75 5.63183 20.75 8V16C20.75 18.6234 18.6234 20.75 16 20.75H8C5.37665 20.75 3.25 18.6234 3.25 16V8C3.25 5.63183 4.98299 3.66816 7.25 3.30859V2.5C7.25 2.08579 7.58579 1.75 8 1.75C8.41421 1.75 8.75 2.08579 8.75 2.5V3.25H15.25V2.5C15.25 2.08579 15.5858 1.75 16 1.75ZM4.75 16C4.75 17.7949 6.20507 19.25 8 19.25H16C17.7949 19.25 19.25 17.7949 19.25 16V9.75H4.75V16ZM8 4.75C6.20507 4.75 4.75 6.20507 4.75 8V8.25H19.25V8C19.25 6.20507 17.7949 4.75 16 4.75H8Z" fill="#18181B"/>
</svg>
