<svg width="24" height="24" viewBox="0 0 24 24" fill="none" xmlns="http://www.w3.org/2000/svg">
<path fill-rule="evenodd" clip-rule="evenodd" d="M12 7.75C14.3472 7.75 16.25 9.65279 16.25 12C16.25 14.3472 14.3472 16.25 12 16.25C9.65279 16.25 7.75 14.3472 7.75 12C7.75 9.65279 9.65279 7.75 12 7.75ZM12 9.25C10.4812 9.25 9.25 10.4812 9.25 12C9.25 13.5188 10.4812 14.75 12 14.75C13.5188 14.75 14.75 13.5188 14.75 12C14.75 10.4812 13.5188 9.25 12 9.25Z" fill="#18181B"/>
<path d="M18 7.75C18.6904 7.75 19.25 8.30964 19.25 9C19.25 9.69036 18.6904 10.25 18 10.25C17.3096 10.25 16.75 9.69036 16.75 9C16.75 8.30964 17.3096 7.75 18 7.75Z" fill="#18181B"/>
<path fill-rule="evenodd" clip-rule="evenodd" d="M14.3818 3.25C15.0447 3.25 15.6508 3.6249 15.9473 4.21777L16.4639 5.25H18C20.0711 5.25 21.75 6.92893 21.75 9V16C21.75 18.0711 20.0711 19.75 18 19.75H6C3.92893 19.75 2.25 18.0711 2.25 16V9C2.25 6.92893 3.92893 5.25 6 5.25H7.53613L8.05273 4.21777C8.34917 3.6249 8.95531 3.25 9.61816 3.25H14.3818ZM9.61816 4.75C9.52347 4.75 9.43688 4.80398 9.39453 4.88867L8.6709 6.33496C8.54385 6.58905 8.28408 6.75 8 6.75H6C4.75736 6.75 3.75 7.75736 3.75 9V16C3.75 17.2426 4.75736 18.25 6 18.25H18C19.2426 18.25 20.25 17.2426 20.25 16V9C20.25 7.75736 19.2426 6.75 18 6.75H16C15.7159 6.75 15.4561 6.58905 15.3291 6.33496L14.6055 4.88867C14.5631 4.80398 14.4765 4.75 14.3818 4.75H9.61816Z" fill="#18181B"/>
</svg>
