<svg width="24" height="24" viewBox="0 0 24 24" fill="none" xmlns="http://www.w3.org/2000/svg">
<path d="M12 9.5C10.6193 9.5 9.5 10.6193 9.5 12C9.5 13.3807 10.6193 14.5 12 14.5C13.3807 14.5 14.5 13.3807 14.5 12C14.5 10.6193 13.3807 9.5 12 9.5Z" fill="#18181B"/>
<path fill-rule="evenodd" clip-rule="evenodd" d="M16.1709 4.10547C15.8321 3.42793 15.1394 3 14.3818 3H9.61816C8.86064 3 8.1679 3.42793 7.8291 4.10547L7.38184 5H6C3.79086 5 2 6.79086 2 9V16C2 18.2091 3.79086 20 6 20H18C20.2091 20 22 18.2091 22 16V9C22 6.79086 20.2091 5 18 5H16.6182L16.1709 4.10547ZM16.5 12C16.5 9.51472 14.4853 7.5 12 7.5C9.51472 7.5 7.5 9.51472 7.5 12C7.5 14.4853 9.51472 16.5 12 16.5C14.4853 16.5 16.5 14.4853 16.5 12ZM12 9.5C10.6193 9.5 9.5 10.6193 9.5 12C9.5 13.3807 10.6193 14.5 12 14.5C13.3807 14.5 14.5 13.3807 14.5 12C14.5 10.6193 13.3807 9.5 12 9.5ZM20 8.5C20 7.67157 19.3284 7 18.5 7C17.6716 7 17 7.67157 17 8.5C17 9.32843 17.6716 10 18.5 10C19.3284 10 20 9.32843 20 8.5Z" fill="#18181B"/>
</svg>
