<svg width="24" height="24" viewBox="0 0 24 24" fill="none" xmlns="http://www.w3.org/2000/svg">
<path fill-rule="evenodd" clip-rule="evenodd" d="M17 12.75C19.3472 12.75 21.25 14.6528 21.25 17C21.25 19.3472 19.3472 21.25 17 21.25C14.6528 21.25 12.75 19.3472 12.75 17C12.75 14.6528 14.6528 12.75 17 12.75ZM17 14.25C15.4812 14.25 14.25 15.4812 14.25 17C14.25 18.5188 15.4812 19.75 17 19.75C18.5188 19.75 19.75 18.5188 19.75 17C19.75 15.4812 18.5188 14.25 17 14.25Z" fill="#18181B"/>
<path fill-rule="evenodd" clip-rule="evenodd" d="M9 13.25C9.9665 13.25 10.75 14.0335 10.75 15V19C10.75 19.9665 9.9665 20.75 9 20.75H5C4.0335 20.75 3.25 19.9665 3.25 19V15C3.25 14.0335 4.0335 13.25 5 13.25H9ZM5 14.75C4.86193 14.75 4.75 14.8619 4.75 15V19C4.75 19.1381 4.86193 19.25 5 19.25H9C9.13807 19.25 9.25 19.1381 9.25 19V15C9.25 14.8619 9.13807 14.75 9 14.75H5Z" fill="#18181B"/>
<path fill-rule="evenodd" clip-rule="evenodd" d="M10.4844 4.125C11.1579 2.95834 12.842 2.95833 13.5156 4.125L16.1133 8.625C16.7869 9.79166 15.9448 11.25 14.5977 11.25H9.40234C8.05519 11.25 7.21314 9.79167 7.88672 8.625L10.4844 4.125ZM12.2168 4.875C12.1206 4.70833 11.8794 4.70833 11.7832 4.875L9.18555 9.375C9.08932 9.54166 9.20989 9.75 9.40234 9.75H14.5977C14.7901 9.74999 14.9107 9.54166 14.8145 9.375L12.2168 4.875Z" fill="#18181B"/>
</svg>
