<svg width="24" height="24" viewBox="0 0 24 24" fill="none" xmlns="http://www.w3.org/2000/svg">
<path d="M17 12.5C19.4853 12.5 21.5 14.5147 21.5 17C21.5 19.4853 19.4853 21.5 17 21.5C14.5147 21.5 12.5 19.4853 12.5 17C12.5 14.5147 14.5147 12.5 17 12.5ZM9.2041 13.0107C10.2128 13.113 11 13.9643 11 15V19C11 20.1046 10.1046 21 9 21H5C3.96435 21 3.11301 20.2128 3.01074 19.2041L3 19V15C3 13.8954 3.89543 13 5 13H9L9.2041 13.0107ZM10.2676 4C11.0374 2.66667 12.9626 2.66667 13.7324 4L16.3301 8.5C17.0999 9.83333 16.1373 11.5 14.5977 11.5H9.40234C7.86275 11.5 6.90012 9.83333 7.66992 8.5L10.2676 4Z" fill="#18181B"/>
</svg>
