<svg width="24" height="24" viewBox="0 0 24 24" fill="none" xmlns="http://www.w3.org/2000/svg">
<path d="M8 10.75C8.69036 10.75 9.25 11.3096 9.25 12C9.25 12.6904 8.69036 13.25 8 13.25C7.30964 13.25 6.75 12.6904 6.75 12C6.75 11.3096 7.30964 10.75 8 10.75Z" fill="#18181B"/>
<path d="M12 10.75C12.6904 10.75 13.25 11.3096 13.25 12C13.25 12.6904 12.6904 13.25 12 13.25C11.3096 13.25 10.75 12.6904 10.75 12C10.75 11.3096 11.3096 10.75 12 10.75Z" fill="#18181B"/>
<path d="M16 10.75C16.6904 10.75 17.25 11.3096 17.25 12C17.25 12.6904 16.6904 13.25 16 13.25C15.3096 13.25 14.75 12.6904 14.75 12C14.75 11.3096 15.3096 10.75 16 10.75Z" fill="#18181B"/>
<path fill-rule="evenodd" clip-rule="evenodd" d="M12 2.25C17.3848 2.25 21.75 6.61522 21.75 12C21.75 17.3848 17.3848 21.75 12 21.75C10.3761 21.75 8.8433 21.352 7.49512 20.6484L4.79883 21.3232C3.51716 21.6437 2.35634 20.4828 2.67676 19.2012L3.35059 16.5039C2.64739 15.156 2.25 13.6234 2.25 12C2.25 6.61522 6.61522 2.25 12 2.25ZM12 3.75C7.44365 3.75 3.75 7.44365 3.75 12C3.75 13.4676 4.13245 14.8437 4.80273 16.0361C4.8966 16.2031 4.92341 16.4001 4.87695 16.5859L4.13184 19.5654C4.08644 19.7482 4.25177 19.9136 4.43457 19.8682L7.41406 19.123C7.5999 19.0766 7.79688 19.1034 7.96387 19.1973C9.15633 19.8676 10.5324 20.25 12 20.25C16.5563 20.25 20.25 16.5563 20.25 12C20.25 7.44365 16.5563 3.75 12 3.75Z" fill="#18181B"/>
</svg>
