<svg width="24" height="24" viewBox="0 0 24 24" fill="none" xmlns="http://www.w3.org/2000/svg">
<path d="M12 13.25C12.4142 13.25 12.75 13.5858 12.75 14C12.75 14.4142 12.4142 14.75 12 14.75H8C7.58579 14.75 7.25 14.4142 7.25 14C7.25 13.5858 7.58579 13.25 8 13.25H12Z" fill="#18181B"/>
<path d="M16 9.25C16.4142 9.25 16.75 9.58579 16.75 10C16.75 10.4142 16.4142 10.75 16 10.75H8C7.58579 10.75 7.25 10.4142 7.25 10C7.25 9.58579 7.58579 9.25 8 9.25H16Z" fill="#18181B"/>
<path fill-rule="evenodd" clip-rule="evenodd" d="M12 2.25C17.3848 2.25 21.75 6.61522 21.75 12C21.75 17.3848 17.3848 21.75 12 21.75C10.3764 21.75 8.84409 21.3518 7.49609 20.6484L4.79883 21.3232C3.51716 21.6437 2.35634 20.4828 2.67676 19.2012L3.35156 16.5039C2.64824 15.1559 2.25 13.6236 2.25 12C2.25 6.61522 6.61522 2.25 12 2.25ZM12 3.75C7.44365 3.75 3.75 7.44365 3.75 12C3.75 13.4676 4.13245 14.8437 4.80273 16.0361L4.86035 16.166C4.9053 16.3005 4.91183 16.4464 4.87695 16.5859L4.13184 19.5654C4.08644 19.7482 4.25177 19.9136 4.43457 19.8682L7.41406 19.123C7.5999 19.0766 7.79688 19.1034 7.96387 19.1973C9.15633 19.8676 10.5324 20.25 12 20.25C16.5563 20.25 20.25 16.5563 20.25 12C20.25 7.44365 16.5563 3.75 12 3.75Z" fill="#18181B"/>
</svg>
