<svg width="24" height="24" viewBox="0 0 24 24" fill="none" xmlns="http://www.w3.org/2000/svg">
<path fill-rule="evenodd" clip-rule="evenodd" d="M12 2C17.5228 2 22 6.47715 22 12C22 17.5228 17.5228 22 12 22C10.3696 22 8.82862 21.6078 7.4668 20.9141L4.85938 21.5654C3.39461 21.9316 2.06838 20.6054 2.43457 19.1406L3.08594 16.5332C2.39216 15.1714 2 13.6304 2 12C2 6.47715 6.47715 2 12 2ZM8 10.5C7.17157 10.5 6.5 11.1716 6.5 12C6.5 12.8284 7.17157 13.5 8 13.5C8.82843 13.5 9.5 12.8284 9.5 12C9.5 11.1716 8.82843 10.5 8 10.5ZM12 10.5C11.1716 10.5 10.5 11.1716 10.5 12C10.5 12.8284 11.1716 13.5 12 13.5C12.8284 13.5 13.5 12.8284 13.5 12C13.5 11.1716 12.8284 10.5 12 10.5ZM16 10.5C15.1716 10.5 14.5 11.1716 14.5 12C14.5 12.8284 15.1716 13.5 16 13.5C16.8284 13.5 17.5 12.8284 17.5 12C17.5 11.1716 16.8284 10.5 16 10.5Z" fill="#18181B"/>
</svg>
