<svg width="24" height="24" viewBox="0 0 24 24" fill="none" xmlns="http://www.w3.org/2000/svg">
<path d="M15.9697 8.46973C16.2626 8.17683 16.7374 8.17683 17.0303 8.46973C17.3231 8.76262 17.3231 9.2374 17.0303 9.53027L11.0303 15.5303C10.7374 15.8231 10.2626 15.8231 9.96973 15.5303L6.96973 12.5303C6.67683 12.2374 6.67683 11.7626 6.96973 11.4697C7.26262 11.1768 7.73738 11.1768 8.03027 11.4697L10.5 13.9395L15.9697 8.46973Z" fill="#18181B"/>
<path fill-rule="evenodd" clip-rule="evenodd" d="M12 2.25C17.3848 2.25 21.75 6.61522 21.75 12C21.75 17.3848 17.3848 21.75 12 21.75C6.61522 21.75 2.25 17.3848 2.25 12C2.25 6.61522 6.61522 2.25 12 2.25ZM12 3.75C7.44365 3.75 3.75 7.44365 3.75 12C3.75 16.5563 7.44365 20.25 12 20.25C16.5563 20.25 20.25 16.5563 20.25 12C20.25 7.44365 16.5563 3.75 12 3.75Z" fill="#18181B"/>
</svg>
