<svg width="24" height="24" viewBox="0 0 24 24" fill="none" xmlns="http://www.w3.org/2000/svg">
<path fill-rule="evenodd" clip-rule="evenodd" d="M17 3C19.2091 3 21 4.79086 21 7V17C21 19.2091 19.2091 21 17 21H7C4.79086 21 3 19.2091 3 17V7C3 4.79086 4.79086 3 7 3H17ZM17.207 8.29297C16.8165 7.90244 16.1835 7.90244 15.793 8.29297L10.5 13.5859L8.20703 11.293C7.81651 10.9024 7.18349 10.9024 6.79297 11.293C6.40244 11.6835 6.40244 12.3165 6.79297 12.707L9.79297 15.707C10.1835 16.0975 10.8165 16.0975 11.207 15.707L17.207 9.70703C17.5975 9.31653 17.5975 8.6835 17.207 8.29297Z" fill="#18181B"/>
</svg>
