<svg width="24" height="24" viewBox="0 0 24 24" fill="none" xmlns="http://www.w3.org/2000/svg">
<path d="M15.9697 8.46973C16.2626 8.17683 16.7374 8.17683 17.0303 8.46973C17.3231 8.76262 17.3231 9.2374 17.0303 9.53027L11.0303 15.5303C10.7374 15.8231 10.2626 15.8231 9.96973 15.5303L6.96973 12.5303C6.67683 12.2374 6.67683 11.7626 6.96973 11.4697C7.26262 11.1768 7.73738 11.1768 8.03027 11.4697L10.5 13.9395L15.9697 8.46973Z" fill="#18181B"/>
<path fill-rule="evenodd" clip-rule="evenodd" d="M16 3.25C18.6234 3.25 20.75 5.37665 20.75 8V16C20.75 18.6234 18.6234 20.75 16 20.75H8C5.37665 20.75 3.25 18.6234 3.25 16V8C3.25 5.37665 5.37665 3.25 8 3.25H16ZM8 4.75C6.20507 4.75 4.75 6.20507 4.75 8V16C4.75 17.7949 6.20507 19.25 8 19.25H16C17.7949 19.25 19.25 17.7949 19.25 16V8C19.25 6.20507 17.7949 4.75 16 4.75H8Z" fill="#18181B"/>
</svg>
