<svg width="24" height="24" viewBox="0 0 24 24" fill="none" xmlns="http://www.w3.org/2000/svg">
<path fill-rule="evenodd" clip-rule="evenodd" d="M12 2C17.5228 2 22 6.47715 22 12C22 17.5228 17.5228 22 12 22C6.47715 22 2 17.5228 2 12C2 6.47715 6.47715 2 12 2ZM17.207 8.29297C16.8165 7.90244 16.1835 7.90244 15.793 8.29297L10.5 13.5859L8.20703 11.293C7.81651 10.9024 7.18349 10.9024 6.79297 11.293C6.40251 11.6835 6.40246 12.3165 6.79297 12.707L9.79297 15.707C10.1835 16.0975 10.8165 16.0975 11.207 15.707L17.207 9.70703C17.5976 9.31651 17.5975 8.68349 17.207 8.29297Z" fill="#18181B"/>
</svg>
