<svg width="24" height="24" viewBox="0 0 24 24" fill="none" xmlns="http://www.w3.org/2000/svg">
<path d="M18.4697 4.46967C18.7626 4.17678 19.2373 4.17678 19.5302 4.46967C19.8231 4.76256 19.8231 5.23732 19.5302 5.53022L13.0605 11.9999L19.5302 18.4697C19.8231 18.7626 19.8231 19.2373 19.5302 19.5302C19.2373 19.8231 18.7626 19.8231 18.4697 19.5302L11.9999 13.0605L5.53022 19.5302C5.23732 19.8231 4.76256 19.8231 4.46967 19.5302C4.17678 19.2373 4.17678 18.7626 4.46967 18.4697L10.9394 11.9999L4.46967 5.53022C4.17678 5.23732 4.17678 4.76256 4.46967 4.46967C4.76256 4.17678 5.23732 4.17678 5.53022 4.46967L11.9999 10.9394L18.4697 4.46967Z" fill="#18181B"/>
</svg>
