<svg width="24" height="24" viewBox="0 0 24 24" fill="none" xmlns="http://www.w3.org/2000/svg">
<path d="M14.4697 8.46973C14.7626 8.17683 15.2374 8.17683 15.5303 8.46973C15.8231 8.76262 15.8231 9.2374 15.5303 9.53027L13.0605 12L15.5303 14.4697C15.8231 14.7626 15.8231 15.2374 15.5303 15.5303C15.2374 15.8231 14.7626 15.8231 14.4697 15.5303L12 13.0605L9.53027 15.5303C9.2374 15.8231 8.76262 15.8231 8.46973 15.5303C8.17683 15.2374 8.17683 14.7626 8.46973 14.4697L10.9395 12L8.46973 9.53027C8.17683 9.23738 8.17683 8.76262 8.46973 8.46973C8.76262 8.17683 9.23738 8.17683 9.53027 8.46973L12 10.9395L14.4697 8.46973Z" fill="#18181B"/>
<path fill-rule="evenodd" clip-rule="evenodd" d="M12 2.25C17.3848 2.25 21.75 6.61522 21.75 12C21.75 17.3848 17.3848 21.75 12 21.75C6.61522 21.75 2.25 17.3848 2.25 12C2.25 6.61522 6.61522 2.25 12 2.25ZM12 3.75C7.44365 3.75 3.75 7.44365 3.75 12C3.75 16.5563 7.44365 20.25 12 20.25C16.5563 20.25 20.25 16.5563 20.25 12C20.25 7.44365 16.5563 3.75 12 3.75Z" fill="#18181B"/>
</svg>
