<svg width="24" height="24" viewBox="0 0 24 24" fill="none" xmlns="http://www.w3.org/2000/svg">
<path fill-rule="evenodd" clip-rule="evenodd" d="M14 2.25C16.0711 2.25 17.75 3.92893 17.75 6V6.25H18C20.0711 6.25 21.75 7.92893 21.75 10V18C21.75 20.0711 20.0711 21.75 18 21.75H10C7.92893 21.75 6.25 20.0711 6.25 18V17.75H6C3.92893 17.75 2.25 16.0711 2.25 14V6C2.25 3.92893 3.92893 2.25 6 2.25H14ZM17.75 14C17.75 16.0711 16.0711 17.75 14 17.75H7.75V18C7.75 19.2426 8.75736 20.25 10 20.25H18C19.2426 20.25 20.25 19.2426 20.25 18V10C20.25 8.75736 19.2426 7.75 18 7.75H17.75V14ZM6 3.75C4.75736 3.75 3.75 4.75736 3.75 6V14C3.75 15.2426 4.75736 16.25 6 16.25H14C15.2426 16.25 16.25 15.2426 16.25 14V6C16.25 4.75736 15.2426 3.75 14 3.75H6Z" fill="#18181B"/>
</svg>
