<svg width="24" height="24" viewBox="0 0 24 24" fill="none" xmlns="http://www.w3.org/2000/svg">
<path d="M12 7.25C12.3441 7.25 12.6441 7.48451 12.7275 7.81836L14 12.9082L15.2725 7.81836C15.3729 7.41663 15.7799 7.17219 16.1816 7.27246C16.5834 7.3729 16.8278 7.77988 16.7275 8.18164L15.96 11.25H17C17.4142 11.25 17.75 11.5858 17.75 12C17.75 12.4142 17.4142 12.75 17 12.75H15.585L14.7275 16.1816C14.6441 16.5155 14.3442 16.75 14 16.75C13.6559 16.75 13.3559 16.5155 13.2725 16.1816L12 11.0918L10.7275 16.1816C10.6441 16.5155 10.3442 16.75 10 16.75C9.65587 16.75 9.35593 16.5155 9.27246 16.1816L8.41504 12.75H7C6.58579 12.75 6.25 12.4142 6.25 12C6.25 11.5858 6.58579 11.25 7 11.25H8.04004L7.27246 8.18164C7.17219 7.7799 7.41663 7.37291 7.81836 7.27246C8.22011 7.17215 8.62707 7.41662 8.72754 7.81836L10 12.9082L11.2725 7.81836L11.3135 7.69824C11.4314 7.42957 11.6988 7.25002 12 7.25Z" fill="#18181B"/>
<path fill-rule="evenodd" clip-rule="evenodd" d="M12 2.25C17.3848 2.25 21.75 6.61522 21.75 12C21.75 17.3848 17.3848 21.75 12 21.75C6.61522 21.75 2.25 17.3848 2.25 12C2.25 6.61522 6.61522 2.25 12 2.25ZM12 3.75C7.44365 3.75 3.75 7.44365 3.75 12C3.75 16.5563 7.44365 20.25 12 20.25C16.5563 20.25 20.25 16.5563 20.25 12C20.25 7.44365 16.5563 3.75 12 3.75Z" fill="#18181B"/>
</svg>
