<svg width="24" height="24" viewBox="0 0 24 24" fill="none" xmlns="http://www.w3.org/2000/svg">
<path fill-rule="evenodd" clip-rule="evenodd" d="M12 2C17.5228 2 22 6.47715 22 12C22 17.5228 17.5228 22 12 22C6.47715 22 2 17.5228 2 12C2 6.47715 6.47715 2 12 2ZM12 7C11.5987 7.00001 11.2425 7.23894 11.085 7.59668L11.0303 7.75781L10 11.8789L8.96973 7.75781C8.8358 7.2221 8.29353 6.89648 7.75781 7.03027C7.2221 7.16421 6.89648 7.70647 7.03027 8.24219L7.71973 11H7C6.44772 11 6 11.4477 6 12C6 12.5523 6.44772 13 7 13H8.21973L9.03027 16.2422C9.14156 16.6873 9.54114 17 10 17C10.4589 17 10.8584 16.6874 10.9697 16.2422L12 12.1211L13.0303 16.2422C13.1416 16.6873 13.5411 17 14 17C14.4589 17 14.8584 16.6874 14.9697 16.2422L15.7803 13H17C17.5523 13 18 12.5523 18 12C18 11.4477 17.5523 11 17 11H16.2803L16.9697 8.24219C17.1035 7.70647 16.7779 7.1642 16.2422 7.03027C15.7065 6.89648 15.1642 7.2221 15.0303 7.75781L14 11.8789L12.9697 7.75781C12.8584 7.31265 12.4589 7 12 7Z" fill="#18181B"/>
</svg>
