<svg width="24" height="24" viewBox="0 0 24 24" fill="none" xmlns="http://www.w3.org/2000/svg">
<path d="M18.25 6.75H5.75V18C5.75 19.2426 6.75736 20.25 8 20.25H16C17.2426 20.25 18.25 19.2426 18.25 18V6.75ZM15 2.25C15.4142 2.25 15.75 2.58579 15.75 3C15.75 3.41421 15.4142 3.75 15 3.75H9C8.58579 3.75 8.25 3.41421 8.25 3C8.25 2.58579 8.58579 2.25 9 2.25H15ZM19.75 18C19.75 20.0711 18.0711 21.75 16 21.75H8C5.92893 21.75 4.25 20.0711 4.25 18V6.75H3C2.58579 6.75 2.25 6.41421 2.25 6C2.25 5.58579 2.58579 5.25 3 5.25H21C21.4142 5.25 21.75 5.58579 21.75 6C21.75 6.41421 21.4142 6.75 21 6.75H19.75V18Z" fill="#18181B"/>
<path d="M8.75 16V10C8.75 9.58579 9.08579 9.25 9.5 9.25C9.91421 9.25 10.25 9.58579 10.25 10V16C10.25 16.4142 9.91421 16.75 9.5 16.75C9.08579 16.75 8.75 16.4142 8.75 16ZM13.75 16V10C13.75 9.58579 14.0858 9.25 14.5 9.25C14.9142 9.25 15.25 9.58579 15.25 10V16C15.25 16.4142 14.9142 16.75 14.5 16.75C14.0858 16.75 13.75 16.4142 13.75 16Z" fill="#18181B"/>
</svg>
