<svg width="24" height="24" viewBox="0 0 24 24" fill="none" xmlns="http://www.w3.org/2000/svg">
<path d="M15.9697 3.96965C17.0911 2.84833 18.909 2.84833 20.0303 3.96965C21.1516 5.09097 21.1516 6.90888 20.0303 8.0302L7.5303 20.5302C7.43418 20.6263 7.31354 20.6945 7.18166 20.7275L3.18166 21.7275C2.92615 21.7913 2.65598 21.7164 2.46975 21.5302C2.28352 21.344 2.20869 21.0738 2.27248 20.8183L3.27248 16.8183L3.30373 16.7216C3.34133 16.6276 3.39764 16.5418 3.46975 16.4697L15.9697 3.96965ZM4.67678 17.3827L4.0303 19.9687L6.61623 19.3222L16.9395 8.99993L15 7.06047L4.67678 17.3827ZM18.9697 5.0302C18.4342 4.49467 17.5658 4.49467 17.0303 5.0302L16.0606 5.99993L18 7.93938L18.9697 6.96965C19.5053 6.43412 19.5053 5.56573 18.9697 5.0302Z" fill="#18181B"/>
</svg>
