<svg width="24" height="24" viewBox="0 0 24 24" fill="none" xmlns="http://www.w3.org/2000/svg">
<path fill-rule="evenodd" clip-rule="evenodd" d="M11.25 7.66981C11.2501 5.93781 13.125 4.85559 14.625 5.72156L22.125 10.0516C23.6248 10.9177 23.6248 13.0821 22.125 13.9481L14.625 18.2782C13.125 19.1442 11.25 18.062 11.25 16.33V15.0302L5.625 18.2782C4.125 19.1442 2.25 18.062 2.25 16.33V7.66981C2.25005 5.93781 4.12503 4.85559 5.625 5.72156L11.25 8.96863V7.66981ZM4.875 7.02039C4.37503 6.73177 3.75005 7.09251 3.75 7.66981V16.33C3.75 16.9073 4.375 17.2681 4.875 16.9794L11.25 13.2987V10.7001L4.875 7.02039ZM13.875 7.02039C13.375 6.73177 12.7501 7.09251 12.75 7.66981C12.75 10.7978 12.75 12.9986 12.75 16.33C12.75 16.9073 13.375 17.2681 13.875 16.9794L21.375 12.6493C21.8749 12.3606 21.8749 11.6391 21.375 11.3505L13.875 7.02039Z" fill="#18181B"/>
</svg>
