<svg width="24" height="24" viewBox="0 0 24 24" fill="none" xmlns="http://www.w3.org/2000/svg">
<path fill-rule="evenodd" clip-rule="evenodd" d="M18.3751 5.72146C19.875 4.85569 21.75 5.93785 21.7501 7.6697V16.3299C21.7501 18.0619 19.8751 19.1441 18.3751 18.2781L12.7501 15.0301V16.3299C12.7501 18.0619 10.8751 19.1441 9.37511 18.2781L1.87511 13.948C0.375288 13.082 0.375291 10.9176 1.87511 10.0515L9.37511 5.72146C10.875 4.85569 12.75 5.93785 12.7501 7.6697V8.96853L18.3751 5.72146ZM11.2501 7.6697C11.25 7.09255 10.625 6.73187 10.1251 7.02029L2.62511 11.3504C2.12517 11.6391 2.12517 12.3605 2.62511 12.6492L10.1251 16.9793C10.6251 17.2679 11.2501 16.9072 11.2501 16.3299C11.2501 13.2017 11.2501 11.0016 11.2501 7.6697ZM20.2501 7.6697C20.25 7.09255 19.625 6.73187 19.1251 7.02029L12.7501 10.7V13.2986L19.1251 16.9793C19.6251 17.2679 20.2501 16.9072 20.2501 16.3299V7.6697Z" fill="#18181B"/>
</svg>
