<svg width="24" height="24" viewBox="0 0 24 24" fill="none" xmlns="http://www.w3.org/2000/svg">
<path fill-rule="evenodd" clip-rule="evenodd" d="M14 2L14.0986 2.00488C14.3276 2.02757 14.5429 2.12883 14.707 2.29297L19.707 7.29297C19.8946 7.4805 20 7.73478 20 8V18C20 20.2091 18.2091 22 16 22H8C5.79086 22 4 20.2091 4 18V6C4 3.79086 5.79086 2 8 2H14ZM9 16C8.44772 16 8 16.4477 8 17C8.00003 17.5523 8.44773 18 9 18H13C13.5523 18 14 17.5523 14 17C14 16.4477 13.5523 16 13 16H9ZM9 12C8.44772 12 8 12.4477 8 13C8.00003 13.5523 8.44773 14 9 14H15C15.5523 14 16 13.5523 16 13C16 12.4477 15.5523 12 15 12H9ZM13.5 7.5C13.5001 8.05222 13.9478 8.5 14.5 8.5H18V8.41406L13.5859 4H13.5V7.5Z" fill="#18181B"/>
</svg>
