<svg width="24" height="24" viewBox="0 0 24 24" fill="none" xmlns="http://www.w3.org/2000/svg">
<path d="M13 15.75C13.4142 15.75 13.75 16.0858 13.75 16.5C13.75 16.9142 13.4142 17.25 13 17.25H9C8.58579 17.25 8.25 16.9142 8.25 16.5C8.25 16.0858 8.58579 15.75 9 15.75H13Z" fill="#18181B"/>
<path d="M15 12.25C15.4142 12.25 15.75 12.5858 15.75 13C15.75 13.4142 15.4142 13.75 15 13.75H9C8.58579 13.75 8.25 13.4142 8.25 13C8.25 12.5858 8.58579 12.25 9 12.25H15Z" fill="#18181B"/>
<path fill-rule="evenodd" clip-rule="evenodd" d="M14 2.25C14.1989 2.25 14.3896 2.32907 14.5303 2.46973L19.5303 7.46973C19.6709 7.61038 19.75 7.80109 19.75 8V18C19.75 20.0711 18.0711 21.75 16 21.75H8C5.92893 21.75 4.25 20.0711 4.25 18V6C4.25 3.92893 5.92893 2.25 8 2.25H14ZM8 3.75C6.75736 3.75 5.75 4.75736 5.75 6V18C5.75 19.2426 6.75736 20.25 8 20.25H16C17.2426 20.25 18.25 19.2426 18.25 18V8.75H14C13.5858 8.75 13.25 8.41421 13.25 8V3.75H8ZM14.75 7.25H17.1895L14.75 4.81055V7.25Z" fill="#18181B"/>
</svg>
