<svg width="24" height="24" viewBox="0 0 24 24" fill="none" xmlns="http://www.w3.org/2000/svg">
<path d="M16 5C16.5523 5 17 5.44772 17 6C17 6.55228 16.5523 7 16 7H4C3.44772 7 3 6.55228 3 6C3 5.44772 3.44772 5 4 5H16Z" fill="#18181B"/>
<path d="M20 11C20.5523 11 21 11.4477 21 12C21 12.5523 20.5523 13 20 13H4C3.44772 13 3 12.5523 3 12C3 11.4477 3.44772 11 4 11H20Z" fill="#18181B"/>
<path d="M12 17C12.5523 17 13 17.4477 13 18C13 18.5523 12.5523 19 12 19H4C3.44772 19 3 18.5523 3 18C3 17.4477 3.44772 17 4 17H12Z" fill="#18181B"/>
</svg>
