<svg width="24" height="24" viewBox="0 0 24 24" fill="none" xmlns="http://www.w3.org/2000/svg">
<path fill-rule="evenodd" clip-rule="evenodd" d="M13 4C15.4853 4 17.5 6.01472 17.5 8.5C17.5 9.80377 16.9446 10.977 16.0586 11.7988C17.2313 12.6111 18 13.9654 18 15.5C18 17.9853 15.9853 20 13.5 20H8C6.89543 20 6 19.1046 6 18V6C6 4.89543 6.89543 4 8 4H13ZM8 18H13.5C14.8807 18 16 16.8807 16 15.5C16 14.1193 14.8807 13 13.5 13H8V18ZM8 11H13C14.3807 11 15.5 9.88071 15.5 8.5C15.5 7.11929 14.3807 6 13 6H8V11Z" fill="#18181B"/>
</svg>
