<svg width="24" height="24" viewBox="0 0 24 24" fill="none" xmlns="http://www.w3.org/2000/svg">
<path fill-rule="evenodd" clip-rule="evenodd" d="M13 4.25C15.3472 4.25 17.25 6.15279 17.25 8.5C17.25 9.84911 16.6199 11.0496 15.6396 11.8281C16.9016 12.5651 17.75 13.9331 17.75 15.5C17.75 17.8472 15.8472 19.75 13.5 19.75H8C7.0335 19.75 6.25 18.9665 6.25 18V6C6.25 5.0335 7.0335 4.25 8 4.25H13ZM7.75 18C7.75 18.1381 7.86193 18.25 8 18.25H13.5C15.0188 18.25 16.25 17.0188 16.25 15.5C16.25 13.9812 15.0188 12.75 13.5 12.75H7.75V18ZM8 5.75C7.86193 5.75 7.75 5.86193 7.75 6V11.25H13C14.5188 11.25 15.75 10.0188 15.75 8.5C15.75 6.98122 14.5188 5.75 13 5.75H8Z" fill="#18181B"/>
</svg>
