<svg width="24" height="24" viewBox="0 0 24 24" fill="none" xmlns="http://www.w3.org/2000/svg">
<path d="M19 12C19.4142 12 19.75 12.3358 19.75 12.75C19.75 13.1642 19.4142 13.5 19 13.5H16.1963C16.5474 14.0884 16.75 14.7655 16.75 15.5C16.75 17.9382 14.5261 19.75 12 19.75C10.1799 19.75 8.56525 18.8574 7.42285 17.4785C7.15867 17.1596 7.20272 16.6871 7.52148 16.4229C7.84038 16.1587 8.31286 16.2027 8.57715 16.5215C9.48211 17.6139 10.696 18.25 12 18.25C13.8921 18.25 15.25 16.9278 15.25 15.5C15.25 14.7419 14.8649 14.0164 14.2227 13.5H5C4.58579 13.5 4.25 13.1642 4.25 12.75C4.25 12.3358 4.58579 12 5 12H19Z" fill="#18181B"/>
<path d="M12 4.25C13.8201 4.25 15.4347 5.1426 16.5771 6.52148C16.8413 6.84038 16.7973 7.31286 16.4785 7.57715C16.1596 7.84133 15.6871 7.79728 15.4229 7.47852C14.5179 6.38613 13.304 5.75 12 5.75C10.1079 5.75 8.75 7.07216 8.75 8.5C8.75 9.2581 9.13506 9.98356 9.77734 10.5H7.80469C7.45315 9.91175 7.25 9.23477 7.25 8.5C7.25 6.06185 9.47385 4.25 12 4.25Z" fill="#18181B"/>
</svg>
