<svg width="24" height="24" viewBox="0 0 24 24" fill="none" xmlns="http://www.w3.org/2000/svg">
<path d="M16 17.25C16.4142 17.25 16.75 17.5858 16.75 18C16.75 18.4142 16.4142 18.75 16 18.75H8C7.58579 18.75 7.25 18.4142 7.25 18C7.25 17.5858 7.58579 17.25 8 17.25H16Z" fill="#18181B"/>
<path d="M20 11.25C20.4142 11.25 20.75 11.5858 20.75 12C20.75 12.4142 20.4142 12.75 20 12.75H4C3.58579 12.75 3.25 12.4142 3.25 12C3.25 11.5858 3.58579 11.25 4 11.25H20Z" fill="#18181B"/>
<path d="M18 5.25C18.4142 5.25 18.75 5.58579 18.75 6C18.75 6.41421 18.4142 6.75 18 6.75H6C5.58579 6.75 5.25 6.41421 5.25 6C5.25 5.58579 5.58579 5.25 6 5.25H18Z" fill="#18181B"/>
</svg>
