<svg width="24" height="24" viewBox="0 0 24 24" fill="none" xmlns="http://www.w3.org/2000/svg">
<path d="M19 12C19.5523 12 20 12.4477 20 13C20 13.5523 19.5523 14 19 14H16.7188C16.8991 14.4636 17 14.9665 17 15.5C17 18.1065 14.6318 20 12 20C10.0938 20 8.41148 19.0645 7.22949 17.6377C6.8775 17.2124 6.93712 16.5817 7.3623 16.2295C7.7876 15.8775 8.41828 15.9371 8.77051 16.3623C9.63586 17.4067 10.7822 18 12 18C13.7865 18 15 16.7595 15 15.5C15 14.9649 14.7796 14.4346 14.3906 14H5C4.44772 14 4 13.5523 4 13C4 12.4477 4.44772 12 5 12H19Z" fill="#18181B"/>
<path d="M12 4C13.9062 4 15.5885 4.93552 16.7705 6.3623C17.1225 6.7876 17.0629 7.41828 16.6377 7.77051C16.2124 8.1225 15.5817 8.06288 15.2295 7.6377C14.3641 6.5933 13.2178 6 12 6C10.2135 6 9 7.24054 9 8.5C9 9.03506 9.22045 9.56544 9.60938 10H7.28027C7.09999 9.53649 7 9.03334 7 8.5C7 5.89347 9.36818 4 12 4Z" fill="#18181B"/>
</svg>
