<svg width="24" height="24" viewBox="0 0 24 24" fill="none" xmlns="http://www.w3.org/2000/svg">
<path d="M13.25 14C13.25 13.3096 12.6904 12.75 12 12.75C11.3096 12.75 10.75 13.3096 10.75 14V19.25H13.25V14ZM14.75 19.25H17C18.2426 19.25 19.25 18.2426 19.25 17V11.2422C19.2499 10.6456 19.0127 10.0732 18.5908 9.65135L13.5908 4.65135C12.7122 3.77297 11.2878 3.77297 10.4092 4.65135L5.40918 9.65135C4.98733 10.0732 4.75012 10.6456 4.75 11.2422V17C4.75 18.2426 5.75736 19.25 7 19.25H9.25V14C9.25 12.4812 10.4812 11.25 12 11.25C13.5188 11.25 14.75 12.4812 14.75 14V19.25ZM20.75 17C20.75 19.071 19.0711 20.75 17 20.75H7C4.92893 20.75 3.25 19.071 3.25 17V11.2422C3.25012 10.2478 3.64548 9.29395 4.34863 8.5908L9.34863 3.5908C10.813 2.12663 13.187 2.12664 14.6514 3.5908L19.6514 8.5908C20.3545 9.29395 20.7499 10.2478 20.75 11.2422V17Z" fill="#18181B"/>
</svg>
