<svg width="24" height="24" viewBox="0 0 24 24" fill="none" xmlns="http://www.w3.org/2000/svg">
<path fill-rule="evenodd" clip-rule="evenodd" d="M8.5 6.75C9.4665 6.75 10.25 7.5335 10.25 8.5C10.25 9.4665 9.4665 10.25 8.5 10.25C7.5335 10.25 6.75 9.4665 6.75 8.5C6.75 7.5335 7.5335 6.75 8.5 6.75Z" fill="#18181B"/>
<path fill-rule="evenodd" clip-rule="evenodd" d="M17 3.25C19.0711 3.25 20.75 4.92893 20.75 7V17C20.75 19.0711 19.0711 20.75 17 20.75H7C4.92893 20.75 3.25 19.0711 3.25 17V7C3.25 4.92893 4.92893 3.25 7 3.25H17ZM10.5303 16.5303C10.2374 16.8232 9.76262 16.8232 9.46973 16.5303L7 14.0605L4.75 16.3105V17C4.75 18.2426 5.75736 19.25 7 19.25H17C18.2426 19.25 19.25 18.2426 19.25 17V16.3105L15 12.0605L10.5303 16.5303ZM7 4.75C5.75736 4.75 4.75 5.75736 4.75 7V14.1895L6.46973 12.4697L6.52637 12.418C6.82095 12.1777 7.25567 12.1951 7.53027 12.4697L10 14.9395L14.4697 10.4697L14.5264 10.418C14.8209 10.1777 15.2557 10.1951 15.5303 10.4697L19.25 14.1895V7C19.25 5.75736 18.2426 4.75 17 4.75H7Z" fill="#18181B"/>
</svg>
