<svg width="24" height="24" viewBox="0 0 24 24" fill="none" xmlns="http://www.w3.org/2000/svg">
<path fill-rule="evenodd" clip-rule="evenodd" d="M17 3C19.2091 3 21 4.79086 21 7V17C21 19.2091 19.2091 21 17 21H7C4.79086 21 3 19.2091 3 17V7C3 4.79086 4.79086 3 7 3H17ZM15.707 12.293C15.3409 11.927 14.7619 11.9044 14.3691 12.2246L14.293 12.293L10.7071 15.8788C10.3166 16.2694 9.68342 16.2694 9.29289 15.8788L7.70703 14.293C7.34095 13.927 6.76187 13.9044 6.36914 14.2246L6.29297 14.293L5 15.5859V17C5.00013 18.1045 5.89551 19 7 19H17C18.1045 19 18.9999 18.1045 19 17V15.5859L15.707 12.293ZM8 6C6.89543 6 6 6.89543 6 8C6 9.10457 6.89543 10 8 10C9.10457 10 10 9.10457 10 8C10 6.89543 9.10457 6 8 6Z" fill="#18181B"/>
</svg>
