<svg width="24" height="24" viewBox="0 0 24 24" fill="none" xmlns="http://www.w3.org/2000/svg">
<path d="M5.29297 9.29297C5.68349 8.90244 6.31651 8.90244 6.70703 9.29297C7.09756 9.68349 7.09756 10.3165 6.70703 10.707L5.36426 12.0498C4.49102 12.923 4.0001 14.1078 4 15.3428C4 17.9147 6.08532 20 8.65723 20C9.89217 19.9999 11.077 19.509 11.9502 18.6357L13.293 17.293C13.6835 16.9024 14.3165 16.9024 14.707 17.293C15.0976 17.6835 15.0976 18.3165 14.707 18.707L13.3643 20.0498C12.1159 21.2981 10.4226 21.9999 8.65723 22C4.98075 22 2 19.0193 2 15.3428C2.0001 13.5774 2.70188 11.8841 3.9502 10.6357L5.29297 9.29297Z" fill="#18181B"/>
<path d="M14.293 8.29297C14.6835 7.90244 15.3165 7.90244 15.707 8.29297C16.0975 8.6835 16.0975 9.31653 15.707 9.70703L9.70703 15.707C9.31653 16.0975 8.6835 16.0975 8.29297 15.707C7.90244 15.3165 7.90244 14.6835 8.29297 14.293L14.293 8.29297Z" fill="#18181B"/>
<path d="M15.3428 2C19.0193 2 22 4.98075 22 8.65723C21.9999 10.4226 21.2981 12.1159 20.0498 13.3643L18.707 14.707C18.3165 15.0976 17.6835 15.0976 17.293 14.707C16.9024 14.3165 16.9024 13.6835 17.293 13.293L18.6357 11.9502C19.509 11.077 19.9999 9.89217 20 8.65723C20 6.08532 17.9147 4 15.3428 4C14.1078 4.0001 12.923 4.49102 12.0498 5.36426L10.707 6.70703C10.3165 7.09756 9.68349 7.09756 9.29297 6.70703C8.90244 6.31651 8.90244 5.68349 9.29297 5.29297L10.6357 3.9502C11.8841 2.70188 13.5774 2.0001 15.3428 2Z" fill="#18181B"/>
</svg>
