<svg width="24" height="24" viewBox="0 0 24 24" fill="none" xmlns="http://www.w3.org/2000/svg">
<path d="M5.46973 9.46973C5.76262 9.17683 6.23738 9.17683 6.53027 9.46973C6.82317 9.76262 6.82317 10.2374 6.53027 10.5303L5.1875 11.873C4.26737 12.7932 3.7501 14.0415 3.75 15.3428C3.75 18.0528 5.94725 20.25 8.65723 20.25C9.95847 20.2499 11.2068 19.7326 12.127 18.8125L13.4697 17.4697C13.7626 17.1768 14.2374 17.1768 14.5303 17.4697C14.8232 17.7626 14.8232 18.2374 14.5303 18.5303L13.1875 19.873C11.9861 21.0745 10.3563 21.7499 8.65723 21.75C5.11882 21.75 2.25 18.8812 2.25 15.3428C2.2501 13.6437 2.92552 12.0139 4.12695 10.8125L5.46973 9.46973Z" fill="#18181B"/>
<path d="M14.4697 8.46973C14.7626 8.17683 15.2374 8.17683 15.5303 8.46973C15.8231 8.76262 15.8231 9.2374 15.5303 9.53027L9.53027 15.5303C9.2374 15.8231 8.76262 15.8231 8.46973 15.5303C8.17683 15.2374 8.17683 14.7626 8.46973 14.4697L14.4697 8.46973Z" fill="#18181B"/>
<path d="M15.3428 2.25C18.8812 2.25 21.75 5.11882 21.75 8.65723C21.7499 10.3563 21.0745 11.9861 19.873 13.1875L18.5303 14.5303C18.2374 14.8232 17.7626 14.8232 17.4697 14.5303C17.1768 14.2374 17.1768 13.7626 17.4697 13.4697L18.8125 12.127C19.7326 11.2068 20.2499 9.95847 20.25 8.65723C20.25 5.94725 18.0528 3.75 15.3428 3.75C14.0415 3.7501 12.7932 4.26737 11.873 5.1875L10.5303 6.53027C10.2374 6.82317 9.76262 6.82317 9.46973 6.53027C9.17683 6.23738 9.17683 5.76262 9.46973 5.46973L10.8125 4.12695C12.0139 2.92552 13.6437 2.2501 15.3428 2.25Z" fill="#18181B"/>
</svg>
