<svg width="24" height="24" viewBox="0 0 24 24" fill="none" xmlns="http://www.w3.org/2000/svg">
<path d="M22.775 7.6C22.775 7.6 23 9.375 23 11.15V12.825C23 14.625 22.775 16.375 22.775 16.375C22.775 16.375 22.55 17.925 21.925 18.575C21.075 19.45 20.125 19.45 19.7 19.5C16.65 19.725 12 19.75 12 19.75C12 19.75 6.275 19.675 4.525 19.5C4.05 19.425 2.925 19.45 2.075 18.575C1.45 17.925 1.225 16.375 1.225 16.375C1.225 16.375 1 14.625 1 12.825V11.15C1 9.375 1.225 7.6 1.225 7.6C1.225 7.6 1.45 6.075 2.075 5.425C2.925 4.55 3.875 4.525 4.3 4.5L12 4.25C12 4.25 16.65 4.25 19.7 4.5C20.125 4.525 21.075 4.55 21.925 5.425C22.55 6.075 22.775 7.6 22.775 7.6ZM9.725 14.85L15.65 11.775L9.725 8.65V14.85Z" fill="#FF0033"/>
</svg>
