<svg width="24" height="24" viewBox="0 0 24 24" fill="none" xmlns="http://www.w3.org/2000/svg">
<path d="M9.88206 9.90595V9.09138C9.61118 9.0532 9.33802 9.03343 9.06447 9.03223C5.72127 9.03223 3 11.752 3 15.0967C3 17.149 4.02541 18.9647 5.58931 20.0614C5.56049 20.0311 5.53318 20.0008 5.50436 19.9689C4.54721 18.8965 3.99659 17.4812 3.99659 15.9325C3.99659 12.6378 6.6041 9.98331 9.88206 9.90595Z" fill="#25F4EE"/>
<path d="M10.0247 18.7266C11.5173 18.7266 12.7581 17.5176 12.8127 16.0387L12.8188 2.86007L15.2109 2.86462L15.2048 2.8358C15.1548 2.56428 15.1275 2.28517 15.1275 2H11.8343L11.8298 15.2044C11.7737 16.6834 10.5571 17.8695 9.06604 17.8695C8.60188 17.8695 8.16502 17.7543 7.78125 17.551C8.28334 18.2473 9.10093 18.7266 10.0247 18.7266ZM19.713 7.36822V6.58248C18.7922 6.58248 17.9352 6.30944 17.2162 5.84073C17.8563 6.57338 18.7255 7.15586 19.713 7.36822Z" fill="#25F4EE"/>
<path d="M17.2163 5.8392C16.5155 5.03374 16.0892 3.98255 16.0892 2.83427H15.1837C15.4157 4.08873 16.1848 5.16571 17.2163 5.8392ZM9.06459 12.3026C7.5371 12.3026 6.27051 13.5707 6.27051 15.0967C6.27051 16.16 6.89849 17.0838 7.7798 17.548C7.43849 17.0785 7.25475 16.5129 7.25496 15.9325C7.25496 14.405 8.49728 13.1627 10.0248 13.1627C10.3099 13.1627 10.583 13.2097 10.8424 13.2901V9.9287C10.5715 9.89051 10.2983 9.87075 10.0248 9.86954C9.97623 9.86954 9.92921 9.87257 9.88219 9.87257L9.85943 9.87561L9.8564 12.4164C9.59853 12.3345 9.34976 12.3026 9.06459 12.3026Z" fill="#FE2C55"/>
<path d="M19.7129 7.31514L19.6962 7.3121L19.6887 9.84832C17.9807 9.84832 16.4031 9.29163 15.1107 8.36481L15.1077 15.0982C15.1077 18.4414 12.4092 21.1384 9.06598 21.1384C7.7736 21.1384 6.57527 20.7562 5.59082 20.0645C6.69814 21.2537 8.27721 22 10.0262 22C13.3694 22 16.0906 19.2802 16.0906 15.9355V9.23853C17.383 10.1653 18.9666 10.7129 20.6746 10.7129V7.41677C20.3439 7.41677 20.0224 7.38188 19.7129 7.31514Z" fill="#FE2C55"/>
<path d="M15.1289 15.0982V8.40121C16.4213 9.32802 18.0049 9.87561 19.7129 9.87561V7.31512C18.7254 7.10428 17.8562 6.57337 17.2161 5.8392C16.1831 5.16571 15.4383 4.08873 15.2063 2.83427H12.7944L12.7899 16.0387C12.7338 17.5176 11.5172 18.7038 10.0261 18.7038C9.10236 18.7038 8.28476 18.2472 7.78116 17.5495C6.89986 17.0853 6.29614 16.1615 6.29614 15.0982C6.29614 13.5707 7.53846 12.3284 9.06596 12.3284C9.35113 12.3284 9.62417 12.3754 9.88355 12.4558V9.87257C6.60558 9.94842 3.96167 12.6378 3.96167 15.934C3.96167 17.5282 4.58055 18.9799 5.59079 20.0629C6.60787 20.7795 7.82181 21.1636 9.06596 21.1627C12.4091 21.1612 15.1289 18.4414 15.1289 15.0982Z" fill="black"/>
</svg>
