<svg width="24" height="24" viewBox="0 0 24 24" fill="none" xmlns="http://www.w3.org/2000/svg">
<path d="M12 6.86111C14.8333 6.86111 17.1667 9.16667 17.1667 12C17.1667 14.8333 14.8333 17.1667 12 17.1667C9.16667 17.1667 6.86111 14.8333 6.86111 12C6.86111 9.16667 9.16667 6.86111 12 6.86111ZM12 15.3333C13.8333 15.3333 15.3333 13.8333 15.3333 12C15.3333 10.1667 13.8333 8.66667 12 8.66667C10.1667 8.66667 8.66667 10.1667 8.66667 12C8.66667 13.8333 10.1667 15.3333 12 15.3333ZM17.3333 7.86111C16.6944 7.86111 16.1667 7.30556 16.1667 6.66667C16.1667 6 16.6944 5.47222 17.3333 5.47222C18 5.47222 18.5556 6 18.5556 6.66667C18.5556 7.30556 18 7.86111 17.3333 7.86111ZM12 2C14.7222 2 15.0556 2.02778 16.1389 2.05556C17.1944 2.11111 17.9444 2.27778 18.5833 2.52778C19.2222 2.77778 19.7778 3.13889 20.3333 3.66667C20.8889 4.25 21.2222 4.77778 21.4722 5.44444C21.7222 6.08333 21.9167 6.83333 21.9444 7.88889C21.9722 8.94444 22 9.27778 22 12C22 14.7222 21.9722 15.0556 21.9444 16.1389C21.9167 17.1667 21.7222 17.9444 21.4722 18.5556C21.2222 19.2222 20.8611 19.7778 20.3333 20.3333C19.7778 20.8611 19.2222 21.2222 18.5556 21.4722C17.9444 21.7222 17.1667 21.9167 16.1389 21.9444C15.0556 21.9722 14.7222 22 12 22C9.27778 22 8.94445 21.9722 7.88889 21.9444C6.83333 21.9167 6.08333 21.7222 5.44444 21.4722C4.77778 21.2222 4.25 20.8611 3.66667 20.3333C3.13889 19.7778 2.77778 19.2222 2.52778 18.5556C2.27778 17.9444 2.08333 17.1667 2.05556 16.1389C2.02778 15.0556 2 14.7222 2 12C2 9.27778 2.02778 8.94444 2.05556 7.86111C2.08333 6.83333 2.27778 6.08333 2.52778 5.44444C2.77778 4.77778 3.13889 4.25 3.66667 3.66667C4.25 3.13889 4.77778 2.77778 5.44444 2.52778C6.08333 2.27778 6.83333 2.08333 7.88889 2.05556C8.94445 2.02778 9.27778 2 12 2ZM12 3.80556L7.94444 3.83333C7 3.91667 6.47222 4.05556 6.11111 4.19444C5.63889 4.38889 5.30556 4.61111 4.94444 4.94445C4.61111 5.27778 4.38889 5.61111 4.19444 6.08333C4.05556 6.44444 3.91667 6.97222 3.86111 7.94444L3.83333 12L3.86111 16.0556C3.91667 17 4.05556 17.5278 4.19444 17.8889C4.38889 18.3611 4.61111 18.6944 4.94444 19.0556C5.30556 19.3889 5.63889 19.6111 6.11111 19.7778C6.47222 19.9167 7 20.0833 7.94444 20.1389L12 20.1667L16.0556 20.1389C17.0278 20.0833 17.5556 19.9167 17.9167 19.7778C18.3889 19.6111 18.7222 19.3889 19.0556 19.0556C19.3889 18.6944 19.6111 18.3611 19.8056 17.8889C19.9444 17.5278 20.1111 17 20.1667 16.0556L20.1944 12L20.1667 7.94444C20.1111 7 19.9444 6.44444 19.8056 6.08333C19.6111 5.61111 19.3889 5.27778 19.0556 4.94445C18.7222 4.61111 18.3889 4.38889 17.9167 4.19444C17.5556 4.05556 17.0278 3.91667 16.0556 3.83333L12 3.80556Z" fill="url(#paint0_radial_6751_2444)"/>
<path d="M12 6.86111C14.8333 6.86111 17.1667 9.16667 17.1667 12C17.1667 14.8333 14.8333 17.1667 12 17.1667C9.16667 17.1667 6.86111 14.8333 6.86111 12C6.86111 9.16667 9.16667 6.86111 12 6.86111ZM12 15.3333C13.8333 15.3333 15.3333 13.8333 15.3333 12C15.3333 10.1667 13.8333 8.66667 12 8.66667C10.1667 8.66667 8.66667 10.1667 8.66667 12C8.66667 13.8333 10.1667 15.3333 12 15.3333ZM17.3333 7.86111C16.6944 7.86111 16.1667 7.30556 16.1667 6.66667C16.1667 6 16.6944 5.47222 17.3333 5.47222C18 5.47222 18.5556 6 18.5556 6.66667C18.5556 7.30556 18 7.86111 17.3333 7.86111ZM12 2C14.7222 2 15.0556 2.02778 16.1389 2.05556C17.1944 2.11111 17.9444 2.27778 18.5833 2.52778C19.2222 2.77778 19.7778 3.13889 20.3333 3.66667C20.8889 4.25 21.2222 4.77778 21.4722 5.44444C21.7222 6.08333 21.9167 6.83333 21.9444 7.88889C21.9722 8.94444 22 9.27778 22 12C22 14.7222 21.9722 15.0556 21.9444 16.1389C21.9167 17.1667 21.7222 17.9444 21.4722 18.5556C21.2222 19.2222 20.8611 19.7778 20.3333 20.3333C19.7778 20.8611 19.2222 21.2222 18.5556 21.4722C17.9444 21.7222 17.1667 21.9167 16.1389 21.9444C15.0556 21.9722 14.7222 22 12 22C9.27778 22 8.94445 21.9722 7.88889 21.9444C6.83333 21.9167 6.08333 21.7222 5.44444 21.4722C4.77778 21.2222 4.25 20.8611 3.66667 20.3333C3.13889 19.7778 2.77778 19.2222 2.52778 18.5556C2.27778 17.9444 2.08333 17.1667 2.05556 16.1389C2.02778 15.0556 2 14.7222 2 12C2 9.27778 2.02778 8.94444 2.05556 7.86111C2.08333 6.83333 2.27778 6.08333 2.52778 5.44444C2.77778 4.77778 3.13889 4.25 3.66667 3.66667C4.25 3.13889 4.77778 2.77778 5.44444 2.52778C6.08333 2.27778 6.83333 2.08333 7.88889 2.05556C8.94445 2.02778 9.27778 2 12 2ZM12 3.80556L7.94444 3.83333C7 3.91667 6.47222 4.05556 6.11111 4.19444C5.63889 4.38889 5.30556 4.61111 4.94444 4.94445C4.61111 5.27778 4.38889 5.61111 4.19444 6.08333C4.05556 6.44444 3.91667 6.97222 3.86111 7.94444L3.83333 12L3.86111 16.0556C3.91667 17 4.05556 17.5278 4.19444 17.8889C4.38889 18.3611 4.61111 18.6944 4.94444 19.0556C5.30556 19.3889 5.63889 19.6111 6.11111 19.7778C6.47222 19.9167 7 20.0833 7.94444 20.1389L12 20.1667L16.0556 20.1389C17.0278 20.0833 17.5556 19.9167 17.9167 19.7778C18.3889 19.6111 18.7222 19.3889 19.0556 19.0556C19.3889 18.6944 19.6111 18.3611 19.8056 17.8889C19.9444 17.5278 20.1111 17 20.1667 16.0556L20.1944 12L20.1667 7.94444C20.1111 7 19.9444 6.44444 19.8056 6.08333C19.6111 5.61111 19.3889 5.27778 19.0556 4.94445C18.7222 4.61111 18.3889 4.38889 17.9167 4.19444C17.5556 4.05556 17.0278 3.91667 16.0556 3.83333L12 3.80556Z" fill="url(#paint1_radial_6751_2444)"/>
<defs>
<radialGradient id="paint0_radial_6751_2444" cx="0" cy="0" r="1" gradientUnits="userSpaceOnUse" gradientTransform="translate(7.31253 23.5404) rotate(-90) scale(19.8215 18.4355)">
<stop stop-color="#FFDD55"/>
<stop offset="0.1" stop-color="#FFDD55"/>
<stop offset="0.5" stop-color="#FF543E"/>
<stop offset="1" stop-color="#C837AB"/>
</radialGradient>
<radialGradient id="paint1_radial_6751_2444" cx="0" cy="0" r="1" gradientTransform="matrix(1.73907 8.68794 -35.8113 7.17241 -1.35011 3.44077)" gradientUnits="userSpaceOnUse">
<stop stop-color="#3771C8"/>
<stop offset="0.128" stop-color="#3771C8"/>
<stop offset="1" stop-color="#6600FF" stop-opacity="0"/>
</radialGradient>
</defs>
</svg>
