<svg width="24" height="24" viewBox="0 0 24 24" fill="none" xmlns="http://www.w3.org/2000/svg">
<path fill-rule="evenodd" clip-rule="evenodd" d="M18 4.25C20.0711 4.25 21.75 5.92893 21.75 8V16C21.75 16.0649 21.7484 16.1293 21.7451 16.1934C21.6477 18.1105 20.1105 19.6477 18.1934 19.7451C18.1293 19.7484 18.0649 19.75 18 19.75H6C3.99378 19.75 2.35551 18.1746 2.25488 16.1934C2.25163 16.1293 2.25 16.0649 2.25 16V8C2.25 5.92893 3.92893 4.25 6 4.25H18ZM13.8213 12.8467C12.6888 13.4758 11.3112 13.4758 10.1787 12.8467L3.75 9.27441V16C3.75 17.2426 4.75736 18.25 6 18.25H18C19.2426 18.25 20.25 17.2426 20.25 16V9.27441L13.8213 12.8467ZM6 5.75C4.9006 5.75 3.98643 6.53871 3.79004 7.58105L10.9072 11.5352C11.5868 11.9127 12.4132 11.9127 13.0928 11.5352L20.209 7.58105C20.0125 6.5388 19.0993 5.75 18 5.75H6Z" fill="#18181B"/>
</svg>
