<svg width="24" height="24" viewBox="0 0 24 24" fill="none" xmlns="http://www.w3.org/2000/svg">
<path fill-rule="evenodd" clip-rule="evenodd" d="M18 4C20.2091 4 22 5.79086 22 8V16C22 18.2091 20.2091 20 18 20H6C3.79086 20 2 18.2091 2 16V8C2 5.79086 3.79086 4 6 4H18ZM19.874 8.62598C19.6058 8.14325 18.9974 7.96922 18.5146 8.2373L12.9717 11.3164C12.3677 11.6519 11.6323 11.6519 11.0283 11.3164L5.48535 8.2373C5.00259 7.96922 4.39416 8.14325 4.12598 8.62598C3.85806 9.1087 4.03199 9.71721 4.51465 9.98535L10.0576 13.0654C11.2655 13.7362 12.7345 13.7363 13.9424 13.0654L19.4854 9.98535C19.968 9.71722 20.1419 9.10869 19.874 8.62598Z" fill="#18181B"/>
</svg>
