<svg width="24" height="24" viewBox="0 0 24 24" fill="none" xmlns="http://www.w3.org/2000/svg">
<path fill-rule="evenodd" clip-rule="evenodd" d="M9.03906 3.25098C9.05993 3.25204 9.08076 3.25401 9.10156 3.25684C9.10808 3.25773 9.1146 3.2587 9.12109 3.25977C9.13976 3.26281 9.15825 3.267 9.17676 3.27148C9.18988 3.27468 9.20287 3.27832 9.21582 3.28223C9.22291 3.28436 9.23025 3.28573 9.2373 3.28809L15 5.20898L18.1309 4.16602C19.9113 3.57286 21.7497 4.89778 21.75 6.77441V16.5586C21.75 17.7422 20.992 18.7927 19.8691 19.167L15.2373 20.7119C15.2303 20.7142 15.2228 20.7147 15.2158 20.7168C15.2029 20.7207 15.1899 20.7243 15.1768 20.7275C15.1582 20.732 15.1398 20.7362 15.1211 20.7393C15.1146 20.7403 15.1081 20.7413 15.1016 20.7422C15.0807 20.745 15.06 20.747 15.0391 20.748C15.026 20.7487 15.0131 20.749 15 20.749C14.9866 20.749 14.9733 20.7488 14.96 20.748C14.9391 20.7469 14.9183 20.7451 14.8975 20.7422C14.8909 20.7413 14.8844 20.7403 14.8779 20.7393C14.8592 20.7362 14.8408 20.7321 14.8223 20.7275C14.8091 20.7243 14.7962 20.7207 14.7832 20.7168C14.7765 20.7148 14.7694 20.7141 14.7627 20.7119L8.99902 18.79L5.86914 19.834C4.0887 20.4272 2.25029 19.1022 2.25 17.2256V7.44141C2.25007 6.25779 3.00797 5.20731 4.13086 4.83301L8.7627 3.28809C8.76945 3.28583 8.77641 3.28428 8.7832 3.28223C8.79614 3.27831 8.80915 3.2747 8.82227 3.27148C8.84076 3.26698 8.85927 3.26283 8.87793 3.25977C8.88442 3.25869 8.89094 3.25774 8.89746 3.25684C8.91826 3.25398 8.9391 3.25207 8.95996 3.25098C8.96484 3.25071 8.96972 3.25017 8.97461 3.25H9.02539C9.02996 3.25016 9.0345 3.25073 9.03906 3.25098ZM9.75 17.459L14.25 18.959V6.54102L9.75 5.04102V17.459ZM20.25 6.77441C20.2497 5.92147 19.4138 5.31912 18.6045 5.58887L15.75 6.54004V18.959L19.3955 17.7441C19.9058 17.5739 20.25 17.0965 20.25 16.5586V6.77441ZM4.60449 6.25586C4.09426 6.42606 3.75007 6.90352 3.75 7.44141V17.2256C3.75029 18.0786 4.58623 18.6809 5.39551 18.4111L8.25 17.459V5.04004L4.60449 6.25586Z" fill="#18181B"/>
</svg>
