<svg width="24" height="24" viewBox="0 0 24 24" fill="none" xmlns="http://www.w3.org/2000/svg">
<g id="multy-person-outline">
<g id="icon">
<path d="M9.58789 12.25C9.032 12.677 8.5398 13.1822 8.12793 13.75H8C5.65279 13.75 3.75 15.6528 3.75 18V19C3.75 19.4142 3.41421 19.75 3 19.75C2.58579 19.75 2.25 19.4142 2.25 19V18C2.25 14.8244 4.82436 12.25 8 12.25H9.58789Z" fill="#18181B"/>
<path d="M16 12.25C19.1756 12.25 21.75 14.8244 21.75 18V19C21.75 19.4142 21.4142 19.75 21 19.75C20.5858 19.75 20.25 19.4142 20.25 19V18C20.25 15.6528 18.3472 13.75 16 13.75H14C11.6528 13.75 9.75 15.6528 9.75 18V19C9.75 19.4142 9.41421 19.75 9 19.75C8.58579 19.75 8.25 19.4142 8.25 19V18C8.25 14.8244 10.8244 12.25 14 12.25H16Z" fill="#18181B"/>
<path d="M9 3.75C9.68326 3.75 10.3233 3.93367 10.875 4.25293C10.566 4.64492 10.3122 5.08204 10.124 5.55273C9.79307 5.36129 9.40983 5.25 9 5.25C7.75736 5.25 6.75 6.25736 6.75 7.5C6.75 8.74264 7.75736 9.75 9 9.75C9.41031 9.75 9.79379 9.63815 10.125 9.44629C10.3133 9.91684 10.5678 10.3532 10.877 10.7451C10.3247 11.0652 9.68422 11.25 9 11.25C6.92893 11.25 5.25 9.57107 5.25 7.5C5.25 5.42893 6.92893 3.75 9 3.75Z" fill="#18181B"/>
<path fill-rule="evenodd" clip-rule="evenodd" d="M15 3.75C17.0711 3.75 18.75 5.42893 18.75 7.5C18.75 9.57107 17.0711 11.25 15 11.25C12.9289 11.25 11.25 9.57107 11.25 7.5C11.25 5.42893 12.9289 3.75 15 3.75ZM15 5.25C13.7574 5.25 12.75 6.25736 12.75 7.5C12.75 8.74264 13.7574 9.75 15 9.75C16.2426 9.75 17.25 8.74264 17.25 7.5C17.25 6.25736 16.2426 5.25 15 5.25Z" fill="#18181B"/>
</g>
</g>
</svg>
