<svg width="24" height="24" viewBox="0 0 24 24" fill="none" xmlns="http://www.w3.org/2000/svg">
<g id="multy-person-solid">
<g id="icon">
<path d="M8.71191 12.5C7.04955 13.9655 6 16.1095 6 18.5V19C6 19.351 6.06306 19.6869 6.17383 20H3C2.44772 20 2 19.5523 2 19V18.5C2 15.1863 4.68629 12.5 8 12.5H8.71191Z" fill="#18181B"/>
<path d="M16 12.5C19.3137 12.5 22 15.1863 22 18.5V19C22 19.5523 21.5523 20 21 20H9C8.44772 20 8 19.5523 8 19V18.5C8 15.1863 10.6863 12.5 14 12.5H16Z" fill="#18181B"/>
<path d="M9 3.5C9.46784 3.5 9.9167 3.58092 10.334 3.72852C9.49998 4.75904 9 6.07101 9 7.5C9 8.92872 9.50025 10.2401 10.334 11.2705C9.91662 11.4182 9.46795 11.5 9 11.5C6.79086 11.5 5 9.70914 5 7.5C5 5.29086 6.79086 3.5 9 3.5Z" fill="#18181B"/>
<path d="M15 3.5C17.2091 3.5 19 5.29086 19 7.5C19 9.70914 17.2091 11.5 15 11.5C12.7909 11.5 11 9.70914 11 7.5C11 5.29086 12.7909 3.5 15 3.5Z" fill="#18181B"/>
</g>
</g>
</svg>
