<svg width="24" height="24" viewBox="0 0 24 24" fill="none" xmlns="http://www.w3.org/2000/svg">
<path fill-rule="evenodd" clip-rule="evenodd" d="M17.6865 2.47615C18.7606 2.28091 19.7497 3.10623 19.75 4.19783V15.9996C19.75 16.0353 19.746 16.0707 19.7412 16.1051C19.6521 17.5922 18.5489 18.8348 17.0625 19.0826L15.9951 19.2613C14.0349 19.588 12.25 18.0757 12.25 16.0885C12.2503 14.5166 13.387 13.175 14.9375 12.9166L15.877 12.7594L16.0049 12.7388C16.8229 12.6025 17.61 12.7872 18.25 13.192V7.89803L8.75 9.62557V17.9996C8.75 18.0353 8.74604 18.0707 8.74121 18.1051C8.65207 19.5922 7.5489 20.8348 6.0625 21.0826L4.99512 21.2613C3.03487 21.588 1.25 20.0757 1.25 18.0885C1.25026 16.5166 2.38697 15.175 3.9375 14.9166L4.87695 14.7594L5.00488 14.7388C5.82286 14.6025 6.61005 14.7872 7.25 15.192V5.83455C7.2502 4.98915 7.85481 4.26434 8.68652 4.11287L17.6865 2.47615ZM17.9551 3.95174L8.95508 5.58846C8.83647 5.61014 8.7502 5.71399 8.75 5.83455V8.10017L18.25 6.37264V4.19783C18.2497 4.04209 18.1084 3.92391 17.9551 3.95174Z" fill="#18181B"/>
</svg>
