<svg width="24" height="24" viewBox="0 0 24 24" fill="none" xmlns="http://www.w3.org/2000/svg">
<path d="M14 18.75C14.4142 18.75 14.75 19.0858 14.75 19.5C14.75 21.0188 13.5188 22.25 12 22.25C10.4812 22.25 9.25 21.0188 9.25 19.5C9.25 19.0858 9.58579 18.75 10 18.75C10.4142 18.75 10.75 19.0858 10.75 19.5C10.75 20.1904 11.3096 20.75 12 20.75C12.6904 20.75 13.25 20.1904 13.25 19.5C13.25 19.0858 13.5858 18.75 14 18.75Z" fill="#18181B"/>
<path fill-rule="evenodd" clip-rule="evenodd" d="M12 2.25C16.2802 2.25 19.75 5.71979 19.75 10V16.25H21C21.4142 16.25 21.75 16.5858 21.75 17C21.75 17.4142 21.4142 17.75 21 17.75H3C2.58579 17.75 2.25 17.4142 2.25 17C2.25 16.5858 2.58579 16.25 3 16.25H4.25V10C4.25 5.71979 7.71979 2.25 12 2.25ZM12 3.75C8.54822 3.75 5.75 6.54822 5.75 10V16.25H18.25V10C18.25 6.54822 15.4518 3.75 12 3.75Z" fill="#18181B"/>
</svg>
