<svg width="24" height="24" viewBox="0 0 24 24" fill="none" xmlns="http://www.w3.org/2000/svg">
<path d="M9 3.25C9.41421 3.25 9.75 3.58579 9.75 4C9.75 4.41421 9.41421 4.75 9 4.75H7C5.75736 4.75 4.75 5.75736 4.75 7V17C4.75 18.2426 5.75736 19.25 7 19.25H17C18.2426 19.25 19.25 18.2426 19.25 17V15C19.25 14.5858 19.5858 14.25 20 14.25C20.4142 14.25 20.75 14.5858 20.75 15V17C20.75 19.0711 19.0711 20.75 17 20.75H7C4.92893 20.75 3.25 19.0711 3.25 17V7C3.25 4.92893 4.92893 3.25 7 3.25H9Z" fill="#18181B"/>
<path d="M20 3.25C20.4142 3.25003 20.75 3.58581 20.75 4V10C20.75 10.4142 20.4142 10.75 20 10.75C19.5858 10.75 19.25 10.4142 19.25 10V5.81055L10.5303 14.5303C10.2374 14.8232 9.76262 14.8231 9.46973 14.5303C9.17683 14.2374 9.17683 13.7626 9.46973 13.4697L18.1895 4.75H14C13.5858 4.75 13.25 4.41421 13.25 4C13.25 3.58579 13.5858 3.25 14 3.25H20Z" fill="#18181B"/>
</svg>
