<svg width="24" height="24" viewBox="0 0 24 24" fill="none" xmlns="http://www.w3.org/2000/svg">
<path d="M9 3C9.55228 3 10 3.44772 10 4C10 4.55228 9.55228 5 9 5H7C5.89543 5 5 5.89543 5 7V17C5 18.1046 5.89543 19 7 19H17C18.1046 19 19 18.1046 19 17V15C19 14.4477 19.4477 14 20 14C20.5523 14 21 14.4477 21 15V17C21 19.2091 19.2091 21 17 21H7C4.79086 21 3 19.2091 3 17V7C3 4.79086 4.79086 3 7 3H9Z" fill="#18181B"/>
<path d="M20 3C20.5522 3.00004 21 3.44774 21 4V10C21 10.5523 20.5522 11 20 11C19.4477 11 19 10.5523 19 10V6.41406L10.707 14.707C10.3165 15.0975 9.6835 15.0975 9.29297 14.707C8.90244 14.3165 8.90244 13.6835 9.29297 13.293L17.5859 5H14C13.4477 5 13 4.55228 13 4C13 3.44772 13.4477 3 14 3H20Z" fill="#18181B"/>
</svg>
