<svg width="24" height="24" viewBox="0 0 24 24" fill="none" xmlns="http://www.w3.org/2000/svg">
<path d="M14 12.75C17.7279 12.75 20.75 15.7721 20.75 19.5V20C20.75 20.4142 20.4142 20.75 20 20.75C19.5858 20.75 19.25 20.4142 19.25 20V19.5C19.25 16.6005 16.8995 14.25 14 14.25H10C7.10051 14.25 4.75 16.6005 4.75 19.5V20C4.75 20.4142 4.41421 20.75 4 20.75C3.58579 20.75 3.25 20.4142 3.25 20V19.5C3.25 15.7721 6.27208 12.75 10 12.75H14Z" fill="#18181B"/>
<path fill-rule="evenodd" clip-rule="evenodd" d="M12 2.75C14.3472 2.75 16.25 4.65279 16.25 7C16.25 9.34721 14.3472 11.25 12 11.25C9.65279 11.25 7.75 9.34721 7.75 7C7.75 4.65279 9.65279 2.75 12 2.75ZM12 4.25C10.4812 4.25 9.25 5.48122 9.25 7C9.25 8.51878 10.4812 9.75 12 9.75C13.5188 9.75 14.75 8.51878 14.75 7C14.75 5.48122 13.5188 4.25 12 4.25Z" fill="#18181B"/>
</svg>
