<svg width="24" height="24" viewBox="0 0 24 24" fill="none" xmlns="http://www.w3.org/2000/svg">
<path d="M12 13C14.5917 13 16.9865 13.4649 18.7705 14.2578C19.6611 14.6537 20.4441 15.1513 21.0176 15.7539C21.5959 16.3617 22 17.1225 22 18C22 20.2091 20.2091 22 18 22H6C3.79086 22 2 20.2091 2 18C2 17.1225 2.40412 16.3617 2.98242 15.7539C3.55593 15.1513 4.33892 14.6537 5.22949 14.2578C7.01345 13.4649 9.40829 13 12 13Z" fill="#18181B"/>
<path d="M12 2C14.7614 2 17 4.23858 17 7C17 9.76142 14.7614 12 12 12C9.23858 12 7 9.76142 7 7C7 4.23858 9.23858 2 12 2Z" fill="#18181B"/>
</svg>
