<svg width="24" height="24" viewBox="0 0 24 24" fill="none" xmlns="http://www.w3.org/2000/svg">
<path fill-rule="evenodd" clip-rule="evenodd" d="M12 13.25C14.5651 13.25 16.9238 13.7107 18.6689 14.4863C19.5403 14.8737 20.292 15.3543 20.8359 15.9258C21.3837 16.5013 21.75 17.2037 21.75 18C21.75 20.0711 20.0711 21.75 18 21.75H6C3.92893 21.75 2.25 20.0711 2.25 18C2.25 17.2037 2.61634 16.5013 3.16406 15.9258C3.70802 15.3543 4.45966 14.8737 5.33105 14.4863C7.07619 13.7107 9.4349 13.25 12 13.25ZM12 14.75C9.59454 14.75 7.45265 15.1843 5.94043 15.8564C5.18354 16.1928 4.61779 16.5746 4.25098 16.96C3.88785 17.3415 3.75 17.6918 3.75 18C3.75 19.2426 4.75736 20.25 6 20.25H18C19.2426 20.25 20.25 19.2426 20.25 18C20.25 17.6918 20.1122 17.3415 19.749 16.96C19.3822 16.5746 18.8165 16.1928 18.0596 15.8564C16.5474 15.1843 14.4055 14.75 12 14.75Z" fill="#18181B"/>
<path fill-rule="evenodd" clip-rule="evenodd" d="M12 2.25C14.6234 2.25 16.75 4.37665 16.75 7C16.75 9.62335 14.6234 11.75 12 11.75C9.37665 11.75 7.25 9.62335 7.25 7C7.25 4.37665 9.37665 2.25 12 2.25ZM12 3.75C10.2051 3.75 8.75 5.20507 8.75 7C8.75 8.79493 10.2051 10.25 12 10.25C13.7949 10.25 15.25 8.79493 15.25 7C15.25 5.20507 13.7949 3.75 12 3.75Z" fill="#18181B"/>
</svg>
