<svg width="24" height="24" viewBox="0 0 24 24" fill="none" xmlns="http://www.w3.org/2000/svg">
<path d="M3.25 13C3.25 9.82437 5.82436 7.25 9 7.25H18.1895L15.4697 4.53028C15.1768 4.23738 15.1768 3.76262 15.4697 3.46973C15.7626 3.17684 16.2374 3.17684 16.5303 3.46973L20.5303 7.46973C20.8232 7.76262 20.8232 8.23738 20.5303 8.53028L16.5303 12.5303C16.2374 12.8232 15.7626 12.8232 15.4697 12.5303C15.1768 12.2374 15.1768 11.7626 15.4697 11.4697L18.1895 8.75H9C6.65279 8.75 4.75 10.6528 4.75 13C4.75 15.3472 6.65279 17.25 9 17.25H16C16.4142 17.25 16.75 17.5858 16.75 18C16.75 18.4142 16.4142 18.75 16 18.75H9C5.82436 18.75 3.25 16.1756 3.25 13Z" fill="#18181B"/>
</svg>
