<svg width="24" height="24" viewBox="0 0 24 24" fill="none" xmlns="http://www.w3.org/2000/svg">
<path d="M3 13C3 9.68628 5.68629 6.99999 9 6.99999H17.5859L15.293 4.70702C14.9024 4.31649 14.9024 3.68348 15.293 3.29295C15.6835 2.90243 16.3165 2.90243 16.707 3.29295L20.707 7.29295C21.0976 7.68348 21.0976 8.31649 20.707 8.70702L16.707 12.707C16.3165 13.0975 15.6835 13.0975 15.293 12.707C14.9024 12.3165 14.9024 11.6835 15.293 11.293L17.5859 8.99999H9C6.79086 8.99999 5 10.7908 5 13C5 15.2091 6.79086 17 9 17H16C16.5523 17 17 17.4477 17 18C17 18.5523 16.5523 19 16 19H9C5.68629 19 3 16.3137 3 13Z" fill="#18181B"/>
</svg>
