<svg width="24" height="24" viewBox="0 0 24 24" fill="none" xmlns="http://www.w3.org/2000/svg">
<path d="M8.93848 4.60928C10.4002 4.00383 12.0088 3.84462 13.5605 4.15322C15.1047 4.46037 16.5243 5.21635 17.6406 6.32607C17.6423 6.32766 17.6439 6.32936 17.6455 6.33096L19 7.64053V5.9999C19.0001 5.44769 19.4478 4.9999 20 4.9999C20.5522 4.9999 20.9999 5.44769 21 5.9999V9.9999C21 10.5522 20.5523 10.9999 20 10.9999H16C15.4477 10.9999 15 10.5522 15 9.9999C15.0001 9.44769 15.4478 8.9999 16 8.9999H17.5283L16.2637 7.77725C16.2567 7.77064 16.249 7.76455 16.2422 7.75771C15.4032 6.91872 14.3346 6.34668 13.1709 6.11514C12.0071 5.88364 10.8004 6.00285 9.7041 6.45693C8.60779 6.91104 7.67003 7.68025 7.01074 8.66689C6.35169 9.65344 6.00003 10.8135 6 11.9999C6 13.1863 6.35171 14.3463 7.01074 15.3329C7.67002 16.3196 8.60777 17.0887 9.7041 17.5429C10.8004 17.997 12.007 18.1162 13.1709 17.8847C14.3346 17.6531 15.4032 17.0811 16.2422 16.2421C16.6327 15.8517 17.2667 15.8517 17.6572 16.2421C18.0477 16.6326 18.0477 17.2666 17.6572 17.6571C16.5384 18.7759 15.1124 19.5379 13.5605 19.8466C12.0088 20.1552 10.4002 19.996 8.93848 19.3905C7.47678 18.785 6.22763 17.7597 5.34863 16.4442C4.46963 15.1287 4 13.5821 4 11.9999C4.00003 10.4177 4.46961 8.87112 5.34863 7.55557C6.22764 6.24009 7.4768 5.21477 8.93848 4.60928Z" fill="#18181B"/>
</svg>
