<svg width="24" height="24" viewBox="0 0 24 24" fill="none" xmlns="http://www.w3.org/2000/svg">
<path d="M9.03418 4.83942C10.4502 4.25294 12.0085 4.09909 13.5117 4.39802C15.0093 4.69591 16.3858 5.43028 17.4678 6.50739L17.4717 6.51032L19.25 8.23005V5.99958C19.2502 5.58552 19.5859 5.24958 20 5.24958C20.4141 5.24958 20.7498 5.58552 20.75 5.99958V9.99958C20.75 10.4138 20.4142 10.7496 20 10.7496H16C15.5858 10.7496 15.25 10.4138 15.25 9.99958C15.2502 9.58552 15.5859 9.24958 16 9.24958H18.1455L16.4492 7.60798C16.4392 7.59898 16.4286 7.59026 16.4189 7.58063C15.545 6.70674 14.4319 6.11089 13.2197 5.8697C12.0075 5.62858 10.7503 5.75223 9.6084 6.22516C8.4666 6.69811 7.49045 7.49943 6.80371 8.52692C6.11701 9.55464 5.75007 10.7636 5.75 11.9996C5.75 13.2356 6.11705 14.4445 6.80371 15.4722C7.49043 16.4998 8.46657 17.301 9.6084 17.774C10.7504 18.247 12.0074 18.3706 13.2197 18.1295C14.4319 17.8882 15.545 17.2925 16.4189 16.4185C16.7118 16.1259 17.1876 16.1259 17.4805 16.4185C17.7733 16.7114 17.7732 17.1871 17.4805 17.48C16.3966 18.5639 15.015 19.3021 13.5117 19.6011C12.0085 19.9001 10.4502 19.7463 9.03418 19.1597C7.6181 18.5731 6.40722 17.5797 5.55566 16.3052C4.70427 15.0309 4.25 13.5322 4.25 11.9996C4.25007 10.467 4.70424 8.96826 5.55566 7.69391C6.40724 6.41954 7.61814 5.42597 9.03418 4.83942Z" fill="#18181B"/>
</svg>
