<svg width="24" height="24" viewBox="0 0 24 24" fill="none" xmlns="http://www.w3.org/2000/svg">
<path fill-rule="evenodd" clip-rule="evenodd" d="M11 2.5C15.6944 2.5 19.5 6.30558 19.5 11C19.5 12.9878 18.8151 14.8141 17.6719 16.2617C17.6834 16.2722 17.6959 16.2818 17.707 16.293L20.707 19.293C21.0975 19.6835 21.0975 20.3165 20.707 20.707C20.3165 21.0975 19.6835 21.0975 19.293 20.707L16.293 17.707C16.2818 17.6959 16.2722 17.6834 16.2617 17.6719C14.8141 18.8151 12.9878 19.5 11 19.5C6.30558 19.5 2.5 15.6944 2.5 11C2.5 6.30558 6.30558 2.5 11 2.5ZM11 4.5C7.41015 4.5 4.5 7.41015 4.5 11C4.5 14.5899 7.41015 17.5 11 17.5C14.5899 17.5 17.5 14.5899 17.5 11C17.5 7.41015 14.5899 4.5 11 4.5Z" fill="#18181B"/>
</svg>
