<svg width="24" height="24" viewBox="0 0 24 24" fill="none" xmlns="http://www.w3.org/2000/svg">
<path d="M12.0003 10C10.8958 10 10.0003 10.8954 10.0003 12C10.0003 13.1046 10.8958 14 12.0003 14C13.1048 13.9998 14.0003 13.1045 14.0003 12C14.0003 10.8955 13.1048 10.0002 12.0003 10Z" fill="#18181B"/>
<path fill-rule="evenodd" clip-rule="evenodd" d="M15.307 4.27344C15.0302 3.02825 13.9776 2.11925 12.7259 2.01074L12.474 2H11.5257C10.1655 2.00024 8.98781 2.94553 8.69272 4.27344C8.63204 4.54576 8.41562 4.83314 8.0394 5.04785C8.01296 5.06294 7.98654 5.07837 7.9603 5.09375C7.58646 5.31279 7.22885 5.35637 6.96225 5.27246C5.66442 4.86406 4.257 5.41172 3.57651 6.58984L3.10385 7.40918C2.42328 8.58806 2.65252 10.0818 3.65561 11.002C3.86161 11.1911 4.00279 11.5216 4.00033 11.9531C4.00029 11.9605 4.00007 11.9679 3.99985 11.9753C3.9996 11.9835 3.99936 11.9918 3.99936 12C3.99936 12.0082 3.9996 12.0165 3.99985 12.0247C4.00007 12.0321 4.00029 12.0395 4.00033 12.0469C4.00279 12.4784 3.86161 12.8089 3.65561 12.998C2.65252 13.9182 2.42328 15.4119 3.10385 16.5908L3.57651 17.4102C4.257 18.5883 5.66442 19.1359 6.96225 18.7275C7.22885 18.6436 7.58646 18.6872 7.9603 18.9062C7.98654 18.9216 8.01296 18.9371 8.0394 18.9521C8.41562 19.1669 8.63204 19.4542 8.69272 19.7266C8.98781 21.0545 10.1655 21.9998 11.5257 22H12.474C13.8342 21.9998 15.0119 21.0545 15.307 19.7266C15.3676 19.4543 15.5842 19.1669 15.9603 18.9521C15.9867 18.9371 16.0132 18.9216 16.0394 18.9062C16.4132 18.6872 16.7708 18.6437 17.0374 18.7275C18.3353 19.136 19.7427 18.5883 20.4232 17.4102L20.8958 16.5908C21.5765 15.4119 21.3473 13.9182 20.3441 12.998C20.1381 12.8089 19.9969 12.4783 19.9994 12.0469V11.9531C19.9969 11.5217 20.1381 11.1911 20.3441 11.002C21.3473 10.0818 21.5765 8.58811 20.8958 7.40918L20.4232 6.58984C19.7427 5.41172 18.3353 4.86402 17.0374 5.27246C16.7708 5.35631 16.4132 5.31282 16.0394 5.09375C16.0132 5.07837 15.9867 5.06294 15.9603 5.04785C15.5842 4.83314 15.3676 4.54573 15.307 4.27344ZM16.0003 12C16.0003 9.79097 14.2093 8.00018 12.0003 8C9.7912 8 8.00033 9.79086 8.00033 12C8.00033 14.2091 9.7912 16 12.0003 16C14.2093 15.9998 16.0003 14.209 16.0003 12ZM12.0003 10C10.8958 10 10.0003 10.8954 10.0003 12C10.0003 13.1046 10.8958 14 12.0003 14C13.1048 13.9998 14.0003 13.1045 14.0003 12C14.0003 10.8955 13.1048 10.0002 12.0003 10Z" fill="#18181B"/>
</svg>
