<svg width="24" height="24" viewBox="0 0 24 24" fill="none" xmlns="http://www.w3.org/2000/svg">
<path fill-rule="evenodd" clip-rule="evenodd" d="M12.0001 8.25C14.0711 8.25 15.7501 9.92893 15.7501 12C15.7501 14.0711 14.0711 15.75 12.0001 15.75C9.92901 15.75 8.25005 14.0711 8.25005 12C8.25005 9.92895 9.92901 8.25003 12.0001 8.25ZM12.0001 9.75C10.7574 9.75003 9.75005 10.7574 9.75005 12C9.75005 13.2426 10.7574 14.25 12.0001 14.25C13.2427 14.25 14.2501 13.2426 14.2501 12C14.2501 10.7574 13.2427 9.75 12.0001 9.75Z" fill="#18181B"/>
<path fill-rule="evenodd" clip-rule="evenodd" d="M12.4747 2.25C13.7176 2.25038 14.7938 3.11378 15.0635 4.32715C15.1433 4.68608 15.4171 5.02504 15.837 5.26465C15.8626 5.27931 15.8886 5.29463 15.9141 5.30957C16.3312 5.55384 16.7622 5.62125 17.1133 5.51074C18.2994 5.13775 19.5863 5.63809 20.2081 6.71484L20.6807 7.53418C21.3024 8.61149 21.0924 9.97649 20.1758 10.8174C19.9045 11.0662 19.7473 11.4729 19.7501 11.9551V12.0449C19.7473 12.5271 19.9045 12.9338 20.1758 13.1826C21.0924 14.0235 21.3024 15.3885 20.6807 16.4658L20.2081 17.2852C19.5863 18.3619 18.2994 18.8622 17.1133 18.4893C16.7622 18.3787 16.3312 18.4462 15.9141 18.6904C15.8886 18.7054 15.8626 18.7207 15.837 18.7354C15.4171 18.975 15.1433 19.3139 15.0635 19.6729C14.7938 20.8862 13.7176 21.7496 12.4747 21.75H11.5264C10.2833 21.7499 9.20731 20.8863 8.93755 19.6729C8.8578 19.314 8.58381 18.975 8.16411 18.7354C8.13842 18.7207 8.11247 18.7054 8.08696 18.6904C7.66992 18.4461 7.23889 18.3789 6.88775 18.4893C5.70164 18.8625 4.4149 18.3619 3.79302 17.2852L3.32036 16.4658C2.69845 15.3884 2.90845 14.0236 3.82525 13.1826C4.0964 12.9337 4.25379 12.5269 4.25103 12.0449C4.25094 12.03 4.25005 12.015 4.25005 12C4.25005 11.985 4.25094 11.97 4.25103 11.9551C4.25379 11.4731 4.0964 11.0663 3.82525 10.8174C2.90845 9.97645 2.69845 8.6116 3.32036 7.53418L3.79302 6.71484C4.4149 5.63811 5.70164 5.13751 6.88775 5.51074C7.23889 5.62113 7.66992 5.55394 8.08696 5.30957C8.11247 5.29462 8.13842 5.27931 8.16411 5.26465C8.58381 5.02503 8.8578 4.68601 8.93755 4.32715C9.20731 3.11367 10.2833 2.25015 11.5264 2.25H12.4747ZM11.5264 3.75C10.9864 3.75015 10.5187 4.12523 10.4014 4.65234C10.2063 5.53023 9.58781 6.17891 8.90728 6.56738C8.88671 6.57912 8.86617 6.59155 8.84575 6.60352C8.16853 7.0004 7.29633 7.21157 6.43755 6.94141C5.92216 6.77923 5.36327 6.99716 5.09282 7.46484L4.61919 8.28418C4.34889 8.75268 4.44036 9.34623 4.83892 9.71191C5.50097 10.3193 5.75545 11.1783 5.75103 11.9629C5.75096 11.9751 5.75005 11.9877 5.75005 12C5.75005 12.0123 5.75096 12.0249 5.75103 12.0371C5.75545 12.8217 5.50097 13.6807 4.83892 14.2881C4.44036 14.6538 4.34889 15.2473 4.61919 15.7158L5.09282 16.5352C5.36327 17.0028 5.92216 17.2208 6.43755 17.0586C7.29633 16.7884 8.16853 16.9996 8.84575 17.3965C8.86617 17.4085 8.88671 17.4209 8.90728 17.4326C9.58781 17.8211 10.2063 18.4698 10.4014 19.3477C10.5187 19.8748 10.9864 20.2499 11.5264 20.25H12.4747C13.0145 20.2496 13.4824 19.8747 13.5997 19.3477C13.7948 18.4697 14.4132 17.8211 15.0938 17.4326C15.1144 17.4209 15.1349 17.4084 15.1553 17.3965C15.8326 16.9997 16.7048 16.7883 17.5635 17.0586C18.0789 17.2205 18.6379 17.0028 18.9083 16.5352L19.3809 15.7158C19.6513 15.2474 19.5605 14.6538 19.1622 14.2881C18.5 13.6807 18.2456 12.8217 18.2501 12.0371V11.9629C18.2456 11.1783 18.5 10.3193 19.1622 9.71191C19.5605 9.34617 19.6513 8.7526 19.3809 8.28418L18.9083 7.46484C18.6379 6.99715 18.0789 6.77947 17.5635 6.94141C16.7048 7.2117 15.8326 7.00035 15.1553 6.60352C15.1349 6.59155 15.1144 6.57912 15.0938 6.56738C14.4132 6.17894 13.7948 5.53031 13.5997 4.65234C13.4824 4.12533 13.0145 3.75038 12.4747 3.75H11.5264Z" fill="#18181B"/>
</svg>
