<svg width="24" height="24" viewBox="0 0 24 24" fill="none" xmlns="http://www.w3.org/2000/svg">
<path fill-rule="evenodd" clip-rule="evenodd" d="M12 4C13.8638 4 15.43 5.27477 15.874 7H17.1719C17.9674 7.00008 18.7304 7.31637 19.293 7.87891L21.1211 9.70703C21.6836 10.2696 21.9999 11.0326 22 11.8281V14C22 15.4802 21.1951 16.7711 20 17.4629V18C20 19.6569 18.6569 21 17 21C15.3431 21 14 19.6569 14 18H10C10 19.6569 8.65685 21 7 21C5.34315 21 4 19.6569 4 18V17.4629C2.80487 16.7711 2 15.4802 2 14V8C2 5.79086 3.79086 4 6 4H12ZM6 18C6 18.5523 6.44772 19 7 19C7.55228 19 8 18.5523 8 18H6ZM16 18C16 18.5523 16.4477 19 17 19C17.5523 19 18 18.5523 18 18H16ZM16 16H18C19.1046 16 20 15.1046 20 14V11.8281C19.9999 11.563 19.8945 11.3086 19.707 11.1211L17.8789 9.29297C17.6914 9.1055 17.437 9.00008 17.1719 9H16V16Z" fill="#18181B"/>
</svg>
