<svg width="24" height="24" viewBox="0 0 24 24" fill="none" xmlns="http://www.w3.org/2000/svg">
<path fill-rule="evenodd" clip-rule="evenodd" d="M12 4.25C13.8142 4.25 15.3273 5.53834 15.6748 7.25H17.1719C17.9011 7.25008 18.6006 7.54001 19.1162 8.05566L20.9443 9.88379C21.46 10.3994 21.7499 11.0989 21.75 11.8281V14C21.75 15.4388 20.9392 16.6876 19.75 17.3164V18C19.75 19.5188 18.5188 20.75 17 20.75C15.4812 20.75 14.25 19.5188 14.25 18V17.75H9.75V18C9.75 19.5188 8.51878 20.75 7 20.75C5.48122 20.75 4.25 19.5188 4.25 18V17.3164C3.06079 16.6876 2.25 15.4388 2.25 14V8C2.25 5.92893 3.92893 4.25 6 4.25H12ZM5.75 18C5.75 18.6904 6.30964 19.25 7 19.25C7.69036 19.25 8.25 18.6904 8.25 18V17.75H6C5.91596 17.75 5.83266 17.7457 5.75 17.7402V18ZM18.25 17.7402C18.1673 17.7457 18.084 17.75 18 17.75H15.75V18C15.75 18.6904 16.3096 19.25 17 19.25C17.6904 19.25 18.25 18.6904 18.25 18V17.7402ZM6 5.75C4.75736 5.75 3.75 6.75736 3.75 8V14C3.75 15.2426 4.75736 16.25 6 16.25H14.25V8C14.25 6.75736 13.2426 5.75 12 5.75H6ZM15.75 16.25H18C19.2426 16.25 20.25 15.2426 20.25 14V11.8281C20.2499 11.4967 20.1181 11.1787 19.8838 10.9443L18.0557 9.11621C17.8213 8.88186 17.5033 8.75008 17.1719 8.75H15.75V16.25Z" fill="#18181B"/>
</svg>
