<svg width="24" height="24" viewBox="0 0 24 24" fill="none" xmlns="http://www.w3.org/2000/svg">
<path fill-rule="evenodd" clip-rule="evenodd" d="M12 2.25C14.0711 2.25 15.75 3.92893 15.75 6V6.25H16C18.0711 6.25 19.75 7.92893 19.75 10V18C19.75 20.0711 18.0711 21.75 16 21.75H8C5.92893 21.75 4.25 20.0711 4.25 18V10C4.25 7.92893 5.92893 6.25 8 6.25H8.25V6C8.25 3.92893 9.92893 2.25 12 2.25ZM8 7.75C6.75736 7.75 5.75 8.75736 5.75 10V18C5.75 19.2426 6.75736 20.25 8 20.25H16C17.2426 20.25 18.25 19.2426 18.25 18V10C18.25 8.75736 17.2426 7.75 16 7.75H15.75V9C15.75 9.41421 15.4142 9.75 15 9.75C14.5858 9.75 14.25 9.41421 14.25 9V7.75H9.75V9C9.75 9.41421 9.41421 9.75 9 9.75C8.58579 9.75 8.25 9.41421 8.25 9V7.75H8ZM12 3.75C10.7574 3.75 9.75 4.75736 9.75 6V6.25H14.25V6C14.25 4.75736 13.2426 3.75 12 3.75Z" fill="#18181B"/>
</svg>
