<svg width="24" height="24" viewBox="0 0 24 24" fill="none" xmlns="http://www.w3.org/2000/svg">
<path d="M5 5.25C5.41421 5.25 5.75 5.58579 5.75 6V18C5.75 18.4142 5.41421 18.75 5 18.75C4.58579 18.75 4.25 18.4142 4.25 18V6C4.25 5.58579 4.58579 5.25 5 5.25Z" fill="#18181B"/>
<path fill-rule="evenodd" clip-rule="evenodd" d="M16.375 5.72168C17.875 4.85572 19.7499 5.93794 19.75 7.66992V16.3301C19.75 18.0621 17.875 19.1443 16.375 18.2783L8.875 13.9482C7.37521 13.0822 7.37519 10.9178 8.875 10.0518L16.375 5.72168ZM18.25 7.66992C18.2499 7.09264 17.625 6.7319 17.125 7.02051L9.625 11.3506C9.12507 11.6393 9.12509 12.3607 9.625 12.6494L17.125 16.9795C17.625 17.2682 18.25 16.9074 18.25 16.3301V7.66992Z" fill="#18181B"/>
</svg>
