<svg width="24" height="24" viewBox="0 0 24 24" fill="none" xmlns="http://www.w3.org/2000/svg">
<path d="M19 5.25C19.4142 5.25 19.75 5.58579 19.75 6V18C19.75 18.4142 19.4142 18.75 19 18.75C18.5858 18.75 18.25 18.4142 18.25 18V6C18.25 5.58579 18.5858 5.25 19 5.25Z" fill="#18181B"/>
<path fill-rule="evenodd" clip-rule="evenodd" d="M4.25 7.66992C4.25 5.93787 6.125 4.85565 7.625 5.72168L15.125 10.0518C16.6247 10.9178 16.6247 13.0822 15.125 13.9482L7.625 18.2783C6.12502 19.1443 4.25006 18.0621 4.25 16.3301V7.66992ZM6.875 7.02051C6.375 6.73183 5.75 7.09257 5.75 7.66992V16.3301C5.75006 16.9074 6.37503 17.2682 6.875 16.9795L14.375 12.6494C14.8749 12.3607 14.8748 11.6393 14.375 11.3506L6.875 7.02051Z" fill="#18181B"/>
</svg>
