<svg width="24" height="24" viewBox="0 0 24 24" fill="none" xmlns="http://www.w3.org/2000/svg">
<path fill-rule="evenodd" clip-rule="evenodd" d="M17.7725 3.25C19.643 3.25015 21.2276 4.62896 21.4864 6.48145L21.7823 8.60352C21.948 9.79001 21.5241 10.9064 20.75 11.6816V17C20.75 19.071 19.0711 20.7499 17.0001 20.75H7.00005C4.92898 20.75 3.25005 19.0711 3.25005 17V11.6816C2.47568 10.9064 2.05118 9.79007 2.21685 8.60352L2.51372 6.48145C2.77254 4.6289 4.35706 3.25006 6.22759 3.25H17.7725ZM8.81157 11.1914C8.15017 12.1377 7.05421 12.7499 5.82525 12.75C5.44949 12.75 5.08903 12.6913 4.75005 12.5869V17C4.75005 18.2426 5.75741 19.25 7.00005 19.25H17.0001C18.2426 19.2499 19.25 18.2426 19.25 17V12.5869C18.9111 12.6913 18.5506 12.75 18.1749 12.75C16.9456 12.7499 15.8489 12.138 15.1876 11.1914C14.475 12.1336 13.3458 12.7498 12.0606 12.75H11.9395C10.6541 12.7499 9.52393 12.1339 8.81157 11.1914ZM6.22759 4.75C5.10535 4.75006 4.15444 5.57705 3.99907 6.68848L3.70318 8.81055C3.52313 10.0993 4.52395 11.25 5.82525 11.25C6.9315 11.2498 7.85546 10.4072 7.95806 9.30566L8.38286 4.75H6.22759ZM9.53032 8.60547C9.39817 10.0243 10.5146 11.2497 11.9395 11.25H12.0606C13.4855 11.2497 14.6019 10.0243 14.4698 8.60547L14.4571 8.4668L14.1104 4.75H9.8897L9.53032 8.60547ZM15.9639 8.4668C15.9649 8.47684 15.964 8.48703 15.9649 8.49707L16.0411 9.30566C16.1437 10.4072 17.0686 11.2499 18.1749 11.25C19.4761 11.25 20.477 10.0993 20.2969 8.81055L20.001 6.68848C19.8457 5.5771 18.8947 4.75015 17.7725 4.75H15.6172L15.9639 8.4668Z" fill="#18181B"/>
</svg>
