<svg width="24" height="24" viewBox="0 0 24 24" fill="none" xmlns="http://www.w3.org/2000/svg">
<path d="M8.84366 14.165C9.75051 14.6928 10.8067 14.9999 11.9394 15H12.0605L12.4052 14.9902C13.4071 14.9349 14.3408 14.6392 15.1542 14.166C16.0401 14.6955 17.0748 14.9999 18.1747 15L18.5077 14.9912C19.4116 14.9412 20.2555 14.6871 20.9999 14.2793V17C20.9998 19.209 19.209 21 16.9999 21H6.99991C4.79085 21 3.00001 19.209 2.99991 17V14.2783C3.8351 14.736 4.79545 15 5.82511 15C6.92504 14.9999 7.95839 14.6942 8.84366 14.165Z" fill="#18181B"/>
<path fill-rule="evenodd" clip-rule="evenodd" d="M17.7724 3C19.7674 3.00017 21.4571 4.47047 21.7333 6.44629L22.0302 8.56836C22.2809 10.3628 21.2702 12.0072 19.7206 12.6787C19.7042 12.6858 19.6883 12.6943 19.6718 12.7012C19.6242 12.721 19.5758 12.7389 19.5273 12.7568C19.5188 12.76 19.5104 12.7635 19.5019 12.7666C19.4576 12.7826 19.4131 12.798 19.3681 12.8125C19.3399 12.8216 19.3116 12.8304 19.2831 12.8389C19.2514 12.8482 19.2194 12.8566 19.1874 12.8652C19.158 12.8732 19.1283 12.8804 19.0985 12.8877C19.0603 12.897 19.022 12.9059 18.9833 12.9141C18.9577 12.9195 18.932 12.9248 18.9062 12.9297C18.8679 12.9369 18.8296 12.9441 18.7909 12.9502C18.7557 12.9558 18.7201 12.9602 18.6845 12.9648C18.6527 12.969 18.6208 12.9732 18.5888 12.9766C18.5518 12.9805 18.5147 12.9835 18.4775 12.9863C18.446 12.9887 18.4144 12.9925 18.3827 12.9941C18.3139 12.9978 18.2445 13 18.1747 13C17.4263 12.9999 16.7237 12.7875 16.1269 12.418C16.0075 12.3441 15.8925 12.2638 15.7821 12.1777C15.5613 12.0056 15.3589 11.8103 15.1796 11.5947C14.4664 12.3991 13.4463 12.9298 12.2929 12.9932C12.216 12.9974 12.1385 13 12.0605 13H11.9394L11.7069 12.9932C11.6302 12.9889 11.554 12.9829 11.4784 12.9746C10.5699 12.8748 9.75379 12.4842 9.12003 11.9014C9.06732 11.8529 9.01587 11.803 8.96573 11.752L8.81925 11.5947C8.10218 12.4567 7.02227 12.9999 5.82511 13L5.62687 12.9951C5.62394 12.995 5.621 12.9943 5.61808 12.9941C5.59456 12.9929 5.57116 12.9899 5.54776 12.9883C5.49801 12.9848 5.4485 12.9809 5.39933 12.9756C5.38173 12.9737 5.36411 12.9719 5.34659 12.9697C5.29977 12.964 5.2532 12.9576 5.20694 12.9502C5.17819 12.9456 5.14953 12.9407 5.12101 12.9355C5.08109 12.9283 5.04132 12.9206 5.00187 12.9121C4.97202 12.9057 4.94257 12.8977 4.913 12.8906C4.88101 12.8829 4.84896 12.8757 4.8173 12.8672C4.78388 12.8583 4.75073 12.8486 4.71769 12.8389C4.6909 12.8309 4.66414 12.823 4.63761 12.8145C4.59762 12.8017 4.55786 12.7884 4.51847 12.7744C4.4979 12.7671 4.47735 12.7596 4.45694 12.752C2.80737 12.1329 1.70947 10.4307 1.96964 8.56836L2.26651 6.44629C2.54272 4.47044 4.23238 3.00013 6.22745 3H17.7724ZM9.11222 5.00391C8.56239 4.95276 8.07558 5.3574 8.02433 5.90723L7.74405 8.90723C7.69285 9.45712 8.09748 9.94488 8.64737 9.99609C9.19723 10.0472 9.68502 9.64263 9.73624 9.09277L10.0155 6.09277C10.0668 5.54291 9.66207 5.05518 9.11222 5.00391ZM14.8876 5.00391C14.3377 5.05512 13.9331 5.54287 13.9843 6.09277L14.2636 9.09277C14.3148 9.64263 14.8026 10.0473 15.3525 9.99609C15.9023 9.94482 16.307 9.45708 16.2558 8.90723L15.9765 5.90723C15.9253 5.35737 15.4375 4.95278 14.8876 5.00391Z" fill="#18181B"/>
</svg>
