<svg width="24" height="24" viewBox="0 0 24 24" fill="none" xmlns="http://www.w3.org/2000/svg">
<path d="M16 9.24988C16.4141 9.24994 16.7499 9.58575 16.75 9.99988V18.1893L19.4697 15.4696C19.7626 15.1768 20.2374 15.1767 20.5303 15.4696C20.8231 15.7625 20.8231 16.2373 20.5303 16.5302L16.5303 20.5302C16.3896 20.6708 16.1989 20.7498 16 20.7499C15.8011 20.7499 15.6104 20.6708 15.4697 20.5302L11.4697 16.5302C11.1768 16.2373 11.1768 15.7625 11.4697 15.4696C11.7626 15.1768 12.2374 15.1767 12.5303 15.4696L15.25 18.1893V9.99988C15.2501 9.58571 15.5858 9.24988 16 9.24988ZM7.52637 3.41785C7.82095 3.17764 8.25571 3.19504 8.53027 3.4696L12.5303 7.4696C12.8231 7.76246 12.8231 8.23725 12.5303 8.53015C12.2374 8.82304 11.7626 8.82304 11.4697 8.53015L8.75 5.81042V13.9999C8.75 14.4141 8.41416 14.7498 8 14.7499C7.58579 14.7499 7.25 14.4141 7.25 13.9999V5.81042L4.53027 8.53015C4.23738 8.82304 3.76262 8.82304 3.46973 8.53015C3.17683 8.23726 3.17683 7.7625 3.46973 7.4696L7.46973 3.4696L7.52637 3.41785Z" fill="#18181B"/>
</svg>
