<svg width="24" height="24" viewBox="0 0 24 24" fill="none" xmlns="http://www.w3.org/2000/svg">
<path d="M16 9.00024C16.5522 9.00033 17 9.44801 17 10.0002V17.5862L19.293 15.2932C19.6835 14.9027 20.3165 14.9027 20.707 15.2932C21.0974 15.6838 21.0975 16.3168 20.707 16.7073L16.707 20.7073C16.5195 20.8947 16.2651 21.0002 16 21.0002C15.7349 21.0002 15.4805 20.8947 15.293 20.7073L11.293 16.7073C10.9025 16.3168 10.9025 15.6837 11.293 15.2932C11.6835 14.9027 12.3165 14.9027 12.707 15.2932L15 17.5862V10.0002C15 9.44796 15.4477 9.00024 16 9.00024ZM7.36914 3.22485C7.76191 2.9045 8.34092 2.9271 8.70703 3.29321L12.707 7.29321C13.0974 7.68375 13.0975 8.31682 12.707 8.70728C12.3166 9.09769 11.6835 9.09758 11.293 8.70728L9 6.41431V14.0002C8.99987 14.5524 8.55213 15.0002 8 15.0002C7.4478 15.0002 7.00013 14.5524 7 14.0002V6.41431L4.70703 8.70728C4.31657 9.09769 3.68349 9.09758 3.29297 8.70728C2.90246 8.31677 2.90249 7.68374 3.29297 7.29321L7.29297 3.29321L7.36914 3.22485Z" fill="#18181B"/>
</svg>
