<svg width="24" height="24" viewBox="0 0 24 24" fill="none" xmlns="http://www.w3.org/2000/svg">
<path d="M7.29297 11.293C7.68349 10.9025 8.31651 10.9025 8.70703 11.293C9.09751 11.6836 9.09754 12.3166 8.70703 12.7071L6.41406 15.0001H14C14.5523 15.0001 15 15.4478 15 16.0001C15 16.5523 14.5523 17.0001 14 17.0001H6.41406L8.70703 19.293C9.09751 19.6836 9.09754 20.3166 8.70703 20.7071C8.31652 21.0976 7.68348 21.0976 7.29297 20.7071L3.29297 16.7071C3.10545 16.5196 3.00002 16.2652 3 16.0001C3 15.7349 3.10546 15.4806 3.29297 15.293L7.29297 11.293ZM15.293 3.29303C15.6835 2.90251 16.3165 2.90251 16.707 3.29303L20.707 7.29303C21.0975 7.68356 21.0975 8.31658 20.707 8.70709L16.707 12.7071C16.3165 13.0976 15.6835 13.0976 15.293 12.7071C14.9025 12.3166 14.9025 11.6836 15.293 11.293L17.5859 9.00006H10C9.44775 9.00006 9.00005 8.5523 9 8.00006C9 7.44778 9.44772 7.00006 10 7.00006H17.5859L15.293 4.70709C14.9025 4.31658 14.9025 3.68356 15.293 3.29303Z" fill="#18181B"/>
</svg>
