<svg width="24" height="24" viewBox="0 0 24 24" fill="none" xmlns="http://www.w3.org/2000/svg">
<path d="M7.46973 11.4698C7.76262 11.1769 8.23738 11.1769 8.53027 11.4698C8.82314 11.7627 8.82316 12.2375 8.53027 12.5303L5.81055 15.2501H14C14.4142 15.2501 14.75 15.5858 14.75 16.0001C14.75 16.4142 14.4142 16.7501 14 16.7501H5.81055L8.53027 19.4698C8.82314 19.7627 8.82316 20.2374 8.53027 20.5303C8.23739 20.8232 7.76261 20.8232 7.46973 20.5303L3.46973 16.5303C3.32909 16.3897 3.25001 16.199 3.25 16.0001C3.25 15.8012 3.32909 15.6104 3.46973 15.4698L7.46973 11.4698ZM15.4697 3.46979C15.7626 3.17689 16.2374 3.17689 16.5303 3.46979L20.5303 7.46979C20.8231 7.76268 20.8232 8.23745 20.5303 8.53033L16.5303 12.5303C16.2374 12.8232 15.7626 12.8232 15.4697 12.5303C15.1768 12.2375 15.1769 11.7627 15.4697 11.4698L18.1895 8.75006H10C9.5858 8.75006 9.25003 8.41425 9.25 8.00006C9.25 7.58585 9.58579 7.25006 10 7.25006H18.1895L15.4697 4.53033C15.1768 4.23745 15.1769 3.76268 15.4697 3.46979Z" fill="#18181B"/>
</svg>
