<svg width="24" height="24" viewBox="0 0 24 24" fill="none" xmlns="http://www.w3.org/2000/svg">
<path d="M9 14.75C9.41421 14.75 9.75 15.0858 9.75 15.5V16.5C9.75 16.9142 9.41421 17.25 9 17.25C8.58579 17.25 8.25 16.9142 8.25 16.5V15.5C8.25 15.0858 8.58579 14.75 9 14.75Z" fill="#18181B"/>
<path d="M9 10.75C9.41421 10.75 9.75 11.0858 9.75 11.5V12.5C9.75 12.9142 9.41421 13.25 9 13.25C8.58579 13.25 8.25 12.9142 8.25 12.5V11.5C8.25 11.0858 8.58579 10.75 9 10.75Z" fill="#18181B"/>
<path d="M9 6.75C9.41421 6.75 9.75 7.08579 9.75 7.5V8.5C9.75 8.91421 9.41421 9.25 9 9.25C8.58579 9.25 8.25 8.91421 8.25 8.5V7.5C8.25 7.08579 8.58579 6.75 9 6.75Z" fill="#18181B"/>
<path fill-rule="evenodd" clip-rule="evenodd" d="M18 4.25C20.0711 4.25 21.75 5.92893 21.75 8V16C21.75 18.0711 20.0711 19.75 18 19.75H6C3.92893 19.75 2.25 18.0711 2.25 16V14.5C2.25 13.7775 2.82203 13.3362 3.30957 13.2119L3.40918 13.1816C3.89891 13.0122 4.25 12.5463 4.25 12C4.25 11.4174 3.85044 10.9258 3.30957 10.7881C2.82203 10.6638 2.25 10.2225 2.25 9.5V8C2.25 5.92893 3.92893 4.25 6 4.25H18ZM6 5.75C4.75736 5.75 3.75 6.75736 3.75 8V9.35547C4.90362 9.6822 5.75 10.7406 5.75 12C5.75 13.2593 4.90349 14.3167 3.75 14.6436V16C3.75 17.2426 4.75736 18.25 6 18.25H18C19.2426 18.25 20.25 17.2426 20.25 16V8C20.25 6.75736 19.2426 5.75 18 5.75H6Z" fill="#18181B"/>
</svg>
