<svg width="24" height="24" viewBox="0 0 24 24" fill="none" xmlns="http://www.w3.org/2000/svg">
<path fill-rule="evenodd" clip-rule="evenodd" d="M18 4C20.2091 4 22 5.79086 22 8V16C22 18.2091 20.2091 20 18 20H6C3.79086 20 2 18.2091 2 16V14.5C2 13.6284 2.68708 13.1116 3.24805 12.9688C3.68082 12.8586 4 12.4655 4 12C4 11.5345 3.68082 11.1414 3.24805 11.0312C2.68708 10.8884 2 10.3716 2 9.5V8C2 5.79086 3.79086 4 6 4H18ZM9 15C8.44772 15 8 15.4477 8 16V17C8 17.5523 8.44772 18 9 18C9.55228 18 10 17.5523 10 17V16C10 15.4477 9.55228 15 9 15ZM9 10.5C8.44772 10.5 8 10.9477 8 11.5V12.5C8 13.0523 8.44772 13.5 9 13.5C9.55228 13.5 10 13.0523 10 12.5V11.5C10 10.9477 9.55228 10.5 9 10.5ZM9 6C8.44772 6 8 6.44772 8 7V8C8 8.55228 8.44772 9 9 9C9.55228 9 10 8.55228 10 8V7C10 6.44772 9.55228 6 9 6Z" fill="#18181B"/>
</svg>
