<svg width="24" height="24" viewBox="0 0 24 24" fill="none" xmlns="http://www.w3.org/2000/svg">
<path d="M12 6.25C12.4142 6.25 12.75 6.58579 12.75 7V11.6895L16.1904 15.1299C16.4831 15.4228 16.4833 15.8976 16.1904 16.1904C15.8976 16.4833 15.4228 16.4831 15.1299 16.1904L11.4697 12.5303C11.4369 12.4974 11.4083 12.4617 11.3828 12.4248C11.353 12.3815 11.327 12.3354 11.3066 12.2861C11.286 12.2361 11.2711 12.1844 11.2617 12.1318C11.2541 12.089 11.25 12.045 11.25 12V7C11.25 6.58579 11.5858 6.25 12 6.25Z" fill="#18181B"/>
<path fill-rule="evenodd" clip-rule="evenodd" d="M12 2.25C17.3848 2.25 21.75 6.61522 21.75 12C21.75 17.3848 17.3848 21.75 12 21.75C6.61522 21.75 2.25 17.3848 2.25 12C2.25 6.61522 6.61522 2.25 12 2.25ZM12 3.75C7.44365 3.75 3.75 7.44365 3.75 12C3.75 16.5563 7.44365 20.25 12 20.25C16.5563 20.25 20.25 16.5563 20.25 12C20.25 7.44365 16.5563 3.75 12 3.75Z" fill="#18181B"/>
</svg>
