<svg width="24" height="24" viewBox="0 0 24 24" fill="none" xmlns="http://www.w3.org/2000/svg">
<path fill-rule="evenodd" clip-rule="evenodd" d="M12 2C17.5228 2 22 6.47715 22 12C22 17.5228 17.5228 22 12 22C6.47715 22 2 17.5228 2 12C2 6.47715 6.47715 2 12 2ZM12 6C11.4477 6 11 6.44772 11 7V12C11 12.1552 11.0365 12.3016 11.0996 12.4326C11.1063 12.4466 11.1127 12.4609 11.1201 12.4746C11.148 12.5261 11.1807 12.5745 11.2168 12.6201C11.2405 12.65 11.2654 12.6794 11.293 12.707L14.9531 16.3672C15.3436 16.7575 15.9767 16.7576 16.3672 16.3672C16.7577 15.9767 16.7575 15.3437 16.3672 14.9531L13 11.5859V7C13 6.44772 12.5523 6 12 6Z" fill="#18181B"/>
</svg>
