<svg width="24" height="24" viewBox="0 0 24 24" fill="none" xmlns="http://www.w3.org/2000/svg">
<path d="M19.2499 13C19.2499 10.6528 17.3472 8.75 14.9999 8.75H5.81049L8.53022 11.4697C8.82311 11.7626 8.82311 12.2374 8.53022 12.5303C8.23732 12.8232 7.76256 12.8232 7.46967 12.5303L3.46967 8.53028C3.17678 8.23738 3.17678 7.76262 3.46967 7.46973L7.46967 3.46973C7.76256 3.17684 8.23732 3.17684 8.53022 3.46973C8.82311 3.76262 8.82311 4.23738 8.53022 4.53028L5.81049 7.25H14.9999C18.1756 7.25 20.7499 9.82437 20.7499 13C20.7499 16.1756 18.1756 18.75 14.9999 18.75H7.99994C7.58573 18.75 7.24994 18.4142 7.24994 18C7.24994 17.5858 7.58573 17.25 7.99994 17.25H14.9999C17.3472 17.25 19.2499 15.3472 19.2499 13Z" fill="#18181B"/>
</svg>
