<svg width="24" height="24" viewBox="0 0 24 24" fill="none" xmlns="http://www.w3.org/2000/svg">
<path d="M19 13C19 10.7908 17.2092 8.99999 15 8.99999H6.41411L8.70708 11.293C9.0976 11.6835 9.0976 12.3165 8.70708 12.707C8.31655 13.0975 7.68354 13.0975 7.29302 12.707L3.29302 8.70702C2.90249 8.31649 2.90249 7.68348 3.29302 7.29295L7.29302 3.29295C7.68354 2.90243 8.31655 2.90243 8.70708 3.29295C9.0976 3.68348 9.0976 4.31649 8.70708 4.70702L6.41411 6.99999H15C18.3138 6.99999 21 9.68628 21 13C21 16.3137 18.3138 19 15 19H8.00005C7.44776 19 7.00005 18.5523 7.00005 18C7.00005 17.4477 7.44776 17 8.00005 17H15C17.2092 17 19 15.2091 19 13Z" fill="#18181B"/>
</svg>
