<svg width="18" height="24" viewBox="0 0 18 24" fill="none" xmlns="http://www.w3.org/2000/svg">
<path d="M12.4697 15.4697C12.7626 15.1769 13.2373 15.1769 13.5302 15.4697C13.823 15.7626 13.823 16.2374 13.5302 16.5303L9.53022 20.5303C9.23734 20.8231 8.76257 20.8231 8.46967 20.5303L4.46967 16.5303C4.17678 16.2374 4.17678 15.7626 4.46967 15.4697C4.76257 15.1769 5.23734 15.1769 5.53022 15.4697L8.99994 18.9395L12.4697 15.4697Z" fill="#18181B"/>
<path d="M8.99994 3.25C9.19881 3.25003 9.38959 3.3291 9.53022 3.46973L13.5302 7.46973C13.823 7.76261 13.823 8.23739 13.5302 8.53027C13.2373 8.82315 12.7626 8.82311 12.4697 8.53027L8.99994 5.06055L5.53022 8.53027C5.23734 8.82315 4.76257 8.82311 4.46967 8.53027C4.17678 8.23738 4.17678 7.76262 4.46967 7.46973L8.46967 3.46973L8.58393 3.37598C8.70621 3.29448 8.85082 3.25 8.99994 3.25Z" fill="#18181B"/>
</svg>
