<svg width="18" height="24" viewBox="0 0 18 24" fill="none" xmlns="http://www.w3.org/2000/svg">
<path d="M8.99994 14.2501C9.19881 14.2501 9.38959 14.3292 9.53022 14.4698L13.5302 18.4698C13.823 18.7627 13.8231 19.2375 13.5302 19.5303C13.2374 19.8232 12.7626 19.8231 12.4697 19.5303L8.99994 16.0606L5.53022 19.5303C5.23735 19.8232 4.76257 19.8231 4.46967 19.5303C4.17678 19.2374 4.17678 18.7627 4.46967 18.4698L8.46967 14.4698L8.58393 14.376C8.70622 14.2945 8.85081 14.2501 8.99994 14.2501Z" fill="#18181B"/>
<path d="M12.4697 4.46978C12.7626 4.17691 13.2373 4.1769 13.5302 4.46978C13.823 4.76267 13.8231 5.23746 13.5302 5.53033L9.53022 9.53033C9.23735 9.82319 8.76257 9.82313 8.46967 9.53033L4.46967 5.53033C4.17678 5.23743 4.17678 4.76267 4.46967 4.46978C4.76257 4.17691 5.23733 4.17689 5.53022 4.46978L8.99994 7.93951L12.4697 4.46978Z" fill="#18181B"/>
</svg>
