<svg width="18" height="24" viewBox="0 0 18 24" fill="none" xmlns="http://www.w3.org/2000/svg">
<path d="M12.2931 15.293C12.6837 14.9025 13.3167 14.9025 13.7072 15.293C14.0976 15.6835 14.0976 16.3165 13.7072 16.707L9.7072 20.707C9.3167 21.0975 8.68367 21.0975 8.29314 20.707L4.29314 16.707C3.90261 16.3165 3.90261 15.6835 4.29314 15.293C4.68367 14.9025 5.3167 14.9025 5.7072 15.293L9.00017 18.5859L12.2931 15.293Z" fill="#18181B"/>
<path d="M9.00017 3C9.26533 3.00004 9.5197 3.10547 9.7072 3.29297L13.7072 7.29297C14.0976 7.68347 14.0976 8.31653 13.7072 8.70703C13.3167 9.09753 12.6837 9.09748 12.2931 8.70703L9.00017 5.41406L5.7072 8.70703C5.3167 9.09753 4.68367 9.09748 4.29314 8.70703C3.90261 8.31651 3.90261 7.68349 4.29314 7.29297L8.29314 3.29297L8.36638 3.22656C8.54432 3.08077 8.76812 3 9.00017 3Z" fill="#18181B"/>
</svg>
