<svg width="18" height="24" viewBox="0 0 18 24" fill="none" xmlns="http://www.w3.org/2000/svg">
<path d="M9.00017 14.0001C9.26533 14.0001 9.5197 14.1056 9.7072 14.2931L13.7072 18.2931C14.0976 18.6836 14.0977 19.3166 13.7072 19.7071C13.3167 20.0976 12.6837 20.0975 12.2931 19.7071L9.00017 16.4142L5.7072 19.7071C5.31672 20.0976 4.68367 20.0975 4.29314 19.7071C3.90261 19.3166 3.90261 18.6836 4.29314 18.2931L8.29314 14.2931L8.36638 14.2267C8.54433 14.0808 8.7681 14.0001 9.00017 14.0001Z" fill="#18181B"/>
<path d="M12.2931 4.29306C12.6837 3.90256 13.3167 3.90255 13.7072 4.29306C14.0976 4.68359 14.0977 5.31664 13.7072 5.70713L9.7072 9.70713C9.31672 10.0976 8.68367 10.0975 8.29314 9.70713L4.29314 5.70713C3.90261 5.3166 3.90261 4.68359 4.29314 4.29306C4.68366 3.90256 5.31668 3.90255 5.7072 4.29306L9.00017 7.58603L12.2931 4.29306Z" fill="#18181B"/>
</svg>
