<svg width="24" height="24" viewBox="0 0 24 24" fill="none" xmlns="http://www.w3.org/2000/svg">
<path fill-rule="evenodd" clip-rule="evenodd" d="M14 4.25C16.0711 4.25 17.75 5.92893 17.75 8V9.5L19.75 8C20.574 7.38197 21.75 7.96994 21.75 9V15C21.75 16.0301 20.574 16.618 19.75 16L17.75 14.499V16C17.75 18.0711 16.0711 19.75 14 19.75H6C3.92893 19.75 2.25 18.0711 2.25 16V8C2.25 5.92893 3.92893 4.25 6 4.25H14ZM6 5.75C4.75736 5.75 3.75 6.75736 3.75 8V16C3.75 17.2426 4.75736 18.25 6 18.25H14C15.2426 18.25 16.25 17.2426 16.25 16V8C16.25 6.75736 15.2426 5.75 14 5.75H6ZM17.75 11.374V12.625L20.25 14.499V9.5L17.75 11.374Z" fill="#18181B"/>
</svg>
