<svg width="24" height="24" viewBox="0 0 24 24" fill="none" xmlns="http://www.w3.org/2000/svg">
<path d="M19.25 15.4102H15.415V19.25H17C18.2426 19.25 19.25 18.2426 19.25 17V15.4102ZM10.0801 19.25H13.915V15.4102H10.0801V19.25ZM15.415 13.9102H19.25V10.0801H15.415V13.9102ZM10.0801 13.9102H13.915V10.0801H10.0801V13.9102ZM4.75 13.9102H8.58008V10.0801H4.75V13.9102ZM4.75 17C4.75 18.2426 5.75736 19.25 7 19.25H8.58008V15.4102H4.75V17ZM19.25 7C19.25 5.75736 18.2426 4.75 17 4.75H7C5.75736 4.75 4.75 5.75736 4.75 7V8.58008H19.25V7ZM20.75 17C20.75 19.0711 19.0711 20.75 17 20.75H7C4.92893 20.75 3.25 19.0711 3.25 17V7C3.25 4.92893 4.92893 3.25 7 3.25H17C19.0711 3.25 20.75 4.92893 20.75 7V17Z" fill="#18181B"/>
</svg>
